<?xml version="1.0" encoding="utf-8"?>
<!-- Generator: Adobe Illustrator 19.0.0, SVG Export Plug-In . SVG Version: 6.00 Build 0)  -->
<svg version="1.1" id="Capa_1" xmlns="http://www.w3.org/2000/svg" xmlns:xlink="http://www.w3.org/1999/xlink" x="0px" y="0px"
	 viewBox="0 0 500 500" style="enable-background:new 0 0 500 500;" xml:space="preserve">
<style type="text/css">
	.st0{fill:#005386;}
	.st1{fill:#0068A4;}
	.st2{fill:#ECF7FC;}
	.st3{fill:#007CBC;}
	.st4{fill:#0168A4;}
	.st5{fill:#C8EBFA;}
	.st6{fill:#BFE8F9;}
	.st7{fill:#EBF6FC;}
	.st8{fill:#D8F0FB;}
	.st9{fill:#D2EEFA;}
	.st10{fill:#D1ECF9;}
	.st11{fill:#B3C597;}
	.st12{fill:#C6EAF9;}
	.st13{fill:#D7F0FB;}
	.st14{fill:#0081BF;}
	.st15{fill:#017DBB;}
	.st16{fill:#F8FBF5;}
	.st17{fill:#0168A6;}
	.st18{fill:#DCF2FB;}
	.st19{fill:#B8E5F8;}
	.st20{fill:#078DCA;}
	.st21{fill:#BAE6F9;}
	.st22{fill:#609D4A;}
	.st23{fill:#E9F5FB;}
	.st24{fill:#BFDEA2;}
	.st25{fill:#B8E6F9;}
	.st26{fill:#F1F7EA;}
	.st27{fill:#F5FAF1;}
	.st28{fill:#E6F2DA;}
	.st29{fill:#ECF5E2;}
	.st30{fill:#B4D88F;}
	.st31{fill:#BFE7F8;}
	.st32{fill:#EEF6E6;}
	.st33{fill:#B5E5F8;}
	.st34{fill:#EFF7F1;}
	.st35{fill:#0792D0;}
	.st36{fill:#92DBF6;}
	.st37{fill:#B4E6F9;}
	.st38{fill:#C5E1A9;}
	.st39{fill:#D2EDE6;}
	.st40{fill:#B4D9A0;}
	.st41{fill:#AEE4F8;}
	.st42{fill:#209DCA;}
	.st43{fill:#70C0BA;}
	.st44{fill:#78D3F5;}
	.st45{fill:#ADC7D7;}
	.st46{fill:#0168A5;}
	.st47{fill:#017CBA;}
	.st48{fill:#0083C2;}
	.st49{fill:#0080BE;}
	.st50{fill:#7BB158;}
	.st51{fill:#43C5F3;}
	.st52{fill:#FAFCFC;}
	.st53{fill:#0178B6;}
	.st54{fill:#80B55C;}
	.st55{fill:#9CDAF7;}
	.st56{fill:#0078B6;}
	.st57{fill:#0074B1;}
	.st58{fill:#0170AD;}
	.st59{fill:#026CA8;}
	.st60{fill:#ADD482;}
	.st61{fill:#B2D78A;}
	.st62{fill:#AAD37D;}
	.st63{fill:#A6D176;}
	.st64{fill:#A9D279;}
	.st65{fill:#007DBB;}
	.st66{fill:#1373A7;}
	.st67{fill:#0A89C6;}
	.st68{fill:#005184;}
	.st69{fill:#046DA9;}
	.st70{fill:#A1CE6F;}
	.st71{fill:#91C264;}
	.st72{fill:#6AA44E;}
	.st73{fill:#8CBE61;}
	.st74{fill:#649F4B;}
	.st75{fill:#9CCA6A;}
	.st76{fill:#97C667;}
	.st77{fill:#7FC3DF;}
	.st78{fill:#84B85C;}
	.st79{fill:#76AD54;}
	.st80{fill:#95C567;}
	.st81{fill:#69AB85;}
	.st82{fill:#006CAC;}
	.st83{fill:#E0F3FB;}
	.st84{fill:#EBF5E7;}
	.st85{fill:#F7FAFD;}
	.st86{fill:#009DDD;}
	.st87{fill:#0197D6;}
	.st88{fill:#0099D9;}
	.st89{fill:#00A1E1;}
	.st90{fill:#E6F2DB;}
	.st91{fill:#00A5E5;}
	.st92{fill:#01A8E8;}
	.st93{fill:#00ABEC;}
	.st94{fill:#25B8EF;}
	.st95{fill:#09AFEE;}
	.st96{fill:#14B2EE;}
	.st97{fill:#5BC9F2;}
	.st98{fill:#4AC4EF;}
	.st99{fill:#75AC54;}
	.st100{fill:#6EA751;}
	.st101{fill:#007AB8;}
	.st102{fill:#3DA8CE;}
	.st103{fill:#E1EFD3;}
	.st104{fill:#D3E9C5;}
	.st105{fill:#23ADDD;}
	.st106{fill:#52ABD2;}
	.st107{fill:#C7E3B1;}
	.st108{fill:#33BCEF;}
	.st109{fill:#27A7D3;}
	.st110{fill:#61B1C6;}
	.st111{fill:#90BFB4;}
	.st112{fill:#BDC997;}
	.st113{fill:#73D1F3;}
	.st114{fill:#79D3F5;}
	.st115{fill:#0184C2;}
	.st116{fill:#F9FEFE;}
	.st117{fill:#0078B5;}
	.st118{fill:#B5E6F9;}
	.st119{fill:#F4F9F0;}
	.st120{fill:#FAFCF9;}
	.st121{fill:#CCEEFB;}
	.st122{fill:#B9E8F9;}
	.st123{fill:#D8F1FB;}
	.st124{fill:#CCEEF9;}
	.st125{fill:#0087C6;}
	.st126{fill:#008BC9;}
	.st127{fill:#0291D0;}
	.st128{fill:#84D7F6;}
	.st129{fill:#B6D995;}
	.st130{fill:#BBDC9C;}
	.st131{fill:#1799CD;}
	.st132{fill:#269EC6;}
	.st133{fill:#0094D3;}
	.st134{fill:#0495D4;}
	.st135{fill:#0190CF;}
	.st136{fill:#0195D3;}
	.st137{fill:#C6E1A6;}
	.st138{fill:#2FA8CD;}
	.st139{fill:#C2EBFA;}
	.st140{fill:#D5EFF0;}
	.st141{fill:#B7E7F5;}
	.st142{fill:#E3F2DF;}
	.st143{fill:#9FE0F8;}
	.st144{fill:#9CDFF7;}
	.st145{fill:#ABE3F7;}
	.st146{fill:#C1E9F9;}
	.st147{fill:#E4F4FB;}
	.st148{fill:#1E7EA4;}
	.st149{fill:#87BA5E;}
	.st150{fill:#9ECA60;}
	.st151{fill:#BDDD9A;}
	.st152{fill:#0783C1;}
	.st153{fill:#FAFDFE;}
	.st154{fill:#F7FBFE;}
	.st155{fill:#0087C5;}
	.st156{fill:#0068A6;}
	.st157{fill:#76AD55;}
	.st158{fill:#A4CF73;}
	.st159{fill:#3E91A3;}
	.st160{fill:#037FBC;}
	.st161{fill:#A0CD6E;}
	.st162{fill:#0283C1;}
	.st163{fill:#1F8FBE;}
	.st164{fill:#BDE7F8;}
	.st165{fill:#226A75;}
	.st166{fill:#71AA52;}
	.st167{fill:#67A24E;}
	.st168{fill:#E9F5EB;}
	.st169{fill:#CBE4AE;}
	.st170{fill:#CEE5B3;}
	.st171{fill:#D1E7B7;}
	.st172{fill:#EAF4DF;}
	.st173{fill:#E3F0D7;}
	.st174{fill:#63CCF1;}
	.st175{fill:#2FBBF0;}
	.st176{fill:#71CFEA;}
	.st177{fill:#D7EAC1;}
	.st178{fill:#D3E8BC;}
	.st179{fill:#D7EBC6;}
	.st180{fill:#DEEECD;}
	.st181{fill:#44C5F3;}
	.st182{fill:#0375B2;}
	.st183{fill:#0A9ECC;}
	.st184{fill:#6FD0F1;}
	.st185{fill:#74D2F5;}
	.st186{fill:#03A8E8;}
	.st187{fill:#05ACEC;}
	.st188{fill:#1DB6EF;}
	.st189{fill:#C9E4B6;}
	.st190{fill:#28B9F0;}
	.st191{fill:#3CB5D3;}
	.st192{fill:#45C2F1;}
	.st193{fill:#38BFF1;}
	.st194{fill:#B1E3E0;}
	.st195{fill:#ECF5E5;}
	.st196{fill:#8AD9F5;}
	.st197{fill:#BDDC99;}
	.st198{fill:#007EC3;}
	.st199{fill:#C8E294;}
	.st200{fill:#94CAA3;}
	.st201{fill:#8EDAF6;}
	.st202{fill:#ADE4F8;}
	.st203{fill:#BBE8F9;}
	.st204{fill:#FCFDFD;}
	.st205{fill:#C2DFA0;}
	.st206{fill:#008ECD;}
	.st207{fill:#2499C0;}
	.st208{fill:#C4E0A4;}
	.st209{fill:#C8E2AA;}
	.st210{fill:#C5E1A6;}
	.st211{fill:#018CCB;}
	.st212{fill:#0387C5;}
	.st213{fill:#CBE293;}
	.st214{fill:#008CCB;}
	.st215{fill:#CCE4B1;}
	.st216{fill:#D1EEFA;}
	.st217{fill:#C6E1A8;}
	.st218{fill:#F0F8FC;}
	.st219{fill:#ADD7AD;}
	.st220{fill:#BFDEA6;}
	.st221{fill:#29A6D0;}
	.st222{fill:#1FA1CF;}
	.st223{fill:#0199D8;}
	.st224{fill:#AFDAB6;}
	.st225{fill:#039BD8;}
	.st226{fill:#E9EE9E;}
	.st227{fill:#02A2E1;}
	.st228{fill:#81D6F6;}
	.st229{fill:#BFDE9D;}
	.st230{fill:#0089C8;}
	.st231{fill:#C1E8F8;}
	.st232{fill:#E1F3FB;}
	.st233{fill:#E6F4FA;}
	.st234{fill:#1CA3D6;}
	.st235{fill:#20A1CE;}
	.st236{fill:#80C7BD;}
	.st237{fill:#D1E7BC;}
	.st238{fill:#2CADD7;}
	.st239{fill:#72D1F3;}
	.st240{fill:#9EC4A1;}
	.st241{fill:#D0EEFA;}
	.st242{fill:#F4F7DF;}
	.st243{fill:#D3ECDB;}
	.st244{fill:#FCF8D6;}
	.st245{fill:#0374A1;}
	.st246{fill:#DDEDC9;}
	.st247{fill:#01A5E6;}
	.st248{fill:#05ABEA;}
	.st249{fill:#F8FBFD;}
	.st250{fill:#D0EBF9;}
	.st251{fill:#CCE8F6;}
	.st252{fill:#B6E4E6;}
	.st253{fill:#01A4E4;}
	.st254{fill:#D5E9C4;}
	.st255{fill:#BDE1BF;}
	.st256{fill:#C0E2BD;}
	.st257{fill:#D8ECCF;}
	.st258{fill:#66CDF3;}
	.st259{fill:#57C8F1;}
	.st260{fill:#DCEED6;}
	.st261{fill:#7FD5F5;}
	.st262{fill:#E8F5FB;}
	.st263{fill:#B3E4E8;}
	.st264{fill:#CBE4AD;}
	.st265{fill:#84C7B5;}
	.st266{fill:#DDEAA1;}
	.st267{fill:#129BD2;}
	.st268{fill:#009CDC;}
	.st269{fill:#CEE5B4;}
	.st270{fill:#019FDF;}
	.st271{fill:#9CD2B2;}
	.st272{fill:#02A2E2;}
	.st273{fill:#CDEAF8;}
	.st274{fill:#D0E6B8;}
	.st275{fill:#98C1A0;}
	.st276{fill:#147DA2;}
	.st277{fill:#B4E2F1;}
	.st278{fill:#3794AE;}
	.st279{fill:#1980A4;}
	.st280{fill:#81B6A6;}
	.st281{fill:#4898A5;}
	.st282{fill:#4899A7;}
	.st283{fill:#107BA2;}
	.st284{fill:#A2C6A0;}
	.st285{fill:#3894B2;}
	.st286{fill:#A6E0EF;}
	.st287{fill:#D2E8BD;}
	.st288{fill:#0D7BA4;}
	.st289{font-family:'AnnapolisExpanded';}
	.st290{font-size:70.9579px;}
</style>
<g id="XMLID_2_">
	<path id="XMLID_1155_" class="st0" d="M393.7,222.8c-0.9-7.1-1.6-7.6-7.7-4.8c-5.7,2.7-11.8,4.8-17,8.6c-2.4,3.2-6,4.4-9.7,5
		c-5.5,1-7.8,4.2-9.1,9.4c-2.2,8.5-3.1,17.5-7.4,25.4c-1.6,2.2-3.4,4.1-6,5.1c-2.1,0.7-3.3-0.1-4-2.1c-0.4-7.9-1.4-15.8-1.7-23.8
		c0-0.6,0-1.2,0-1.8c0.8-4.2-1.8-4-4.6-3.6c-1.2-0.1-2.2-0.5-2.7-1.7c-0.4-2.7,3.6-3.2,3-6c-0.6-0.8-1.5-1.3-2.3-1.9
		c-3-2.5-5.6-5.4-8.4-8.1c-1.7-1.8-3.4-3.6-5.2-5.3c-1-1-2.1-2-3.1-3.1c-3.6-5.3,0.8-5.5,4.1-6.5c4.2-0.5,8.1,0.5,11.8,2.6
		c1.8,1,3.6,2,5.5,2.9c2.5,1.4,5,2.6,7.6,3.7c2.1,0.9,4.2,1.6,6.3,2.5c2.6,1.5,4.7,0.1,6.7-1.3c4-2.9,8.3-5.2,12.7-7.4
		c2.3-1.1,4.7-2.3,7.1-3.2c3.3-1.2,6.4-2.8,9.4-4.6c2.6-1.5,3.1-3.2,1.2-6c-4-5.8-9.2-10.5-14.1-15.4c-1.5-1.6-3.4-2.7-5.1-4.1
		c-1.8-1.6-3.4-3.4-5.2-5.1c-1.3-1.4-2.7-2.7-4.1-4c-2-1.9-4.2-3.6-6.2-5.5c-3.8-2.9-6.6-6.7-10.6-9.4c-1.3-1.1-2.3-2.5-3.8-3.4
		c-2.1-1.6-4.7-3.2-3.2-6.3c1.5-3,4.6-3.6,7.9-3.1c4.3,1.6,8.2,3.9,12.2,6.1c5.6,6.2,13.6,8.4,20.4,12.4c2.3,1.3,2.9-1.7,4.3-2.7
		c5.5-3.8,9.6-3.8,10.5,0.3c1.1,4.8-4.2,4.1-6.3,7c4.1,2.3,8.3,4.4,12.2,6.8c1.8,1.1,2.9,0.9,4.4-0.4c0.9-0.8,2.1-1.5,3.2-1.8
		c2.3-0.6,4.6-3.3,7,0.4c2.9,4.5-1.4,5.1-3.9,7.5c5.6,3.1,10.9,6,16.2,9c2.5,1.4,4.5-0.2,6.4-1.2c8.2-4.2,16.6-7.5,25.7-9.1
		c1.6-0.3,3.3-0.4,4.9-0.5c1.5-0.1,3.1,0,3.9,1.4c1.1,1.9-0.5,3.2-1.6,4.3c-5.8,6.1-12.5,11.2-20.3,14.2
		c-8.2,3.1-13.1,7.8-13.1,16.9c0,2.6-0.9,5.3-1.4,7.7c1.1,1.5,2.1,0.6,2.9,0.2c2.7-1.1,4.1-0.1,5.3,2.4c1.4,2.9-0.6,4.2-2.3,4.6
		c-10.8,2.5-8.9,11.5-10.7,18.8c0.9,0.2,1.3,0.5,1.6,0.4c3-0.7,7-4.4,8.4,1.4c1.3,5-3.9,5.9-6.7,6.2c-4.9,0.5-5.7,3.2-6.4,7
		c-1.6,9.2-3.7,18.3-5.1,27.6c-0.7,4.6-2.9,7.1-7.7,7.9c-1.7-23-3.5-45.8-5.2-68.7C394.7,225.4,393.4,224.4,393.7,222.8z"/>
	<path id="XMLID_1154_" class="st1" d="M187,322.8c-7.1-5.4-14.3-10.8-21.4-16.2c0.2-3.3,3.1-3,5.1-3.5c5.6-1.6,11.3-2.7,16.9-4.1
		c1,0,2,0.1,2.9,0.5c3,2.2,6,4.6,10.1,2.8c1-0.4,2.2-0.1,2.9,0.7c4.2,4.6,9.9,2.8,14.8,4.1c7.5,2,13.7,1.7,20.4-1.7
		c1.7-0.9,4.1-0.2,6.2-0.3c2.6-0.1,5.5-0.5,6.7-2.7c3-5.5,8.5-9.1,10.4-15.2c0.4-0.8,1-1.5,1.8-2.1c2.3-1.5,4.6-1.6,7-0.1
		c2,1.6,3.1,3.7,3.3,6.2c0,0.6-0.1,1.2-0.3,1.7c-0.3,0.8-0.8,1.5-1.4,2.2c-1.5,1.8-3,3.7-3.9,5.9c-0.3,1.2,0,2.4,0.4,3.6
		c0.4,1.4,0.7,2.8,1.8,3.9c1,1.1,2.3,1.8,3.5,2.6c0.6,0.4,1.2,0.8,1.8,1.3c0.9,0.6,1.8,1,2.7,1.4c1,0.4,2.1,0.8,3.2,1.1
		c3.6,1.2,8.5-1.5,10.8,3.6c0.2,0.9,0.2,1.9,0,2.8c-1.4,3.8-3.4,7.2-6.5,9.9c-1.4,1.2-3,2.1-4.7,2.8c-2,0.7-4.1,1.4-6.2,1.8
		c-5.9,0.6-11.5,3.3-17.5,2.6c-1.3-0.1-2.6-0.2-3.8-0.5c-4.4-1.1-8.9-1-13.3,0c-1.3,0.3-2.5,0.5-3.8,0.5c-6.1,0.8-11.7-1.3-17.5-2.4
		c-2-0.5-4-1.2-6-1.8c-1.3-0.5-2.7-0.8-4.1-1c-0.8-0.1-1.6-0.3-2.4-0.5c-1.3-0.4-2.6-0.8-3.8-1.4c-1.6-0.9-3.2-1.8-5.1-2.2
		c-1-0.3-2-0.8-2.9-1.4c-2-1.4-4.1-2.4-6.3-3.3C188.1,323.9,187.5,323.5,187,322.8z"/>
	<path id="XMLID_1153_" class="st2" d="M74.5,139.3c0.7-11.5,12.9-13.5,21.8-9.8c2.7,1.1,3.8,1.8,5.7-1.2c4.3-7,10.7-10.5,19.2-10.3
		c7.6,0.2,15.3-0.8,21.8,4.8c2.6,2.2,4.6,4.6,6.6,7.3c1.3,1.8,1.9,4.3,4.9,4.1c0.3,0,0.5,0,0.8,0c1.8-0.1,3.7-0.2,5.4-0.8
		c0.8-0.2,1.7-0.3,2.5-0.2c0.6,0.1,1.2,0.2,1.7,0.4c2,1,4.1,1.7,5.6,3.4c1.1,1.7,1.4,3.3-0.2,4.8c-28.4-1.3-56.8-0.3-85.2-0.6
		c-3.3,0-6.7,0.4-9.8-1.1C75.1,139.8,74.8,139.6,74.5,139.3z"/>
	<path id="XMLID_1152_" class="st3" d="M125.6,198.9c-0.2-7.2,2.3-14,3.8-20.9c-0.6-1.3,0.1-2.3,0.8-3.3c1-1.2,2.1-2.3,3.4-3.1
		c3.6-1.7,7.2,0,10.8-0.2c3.5-0.2,6.9-0.4,10.1-1.7c1.6-0.7,3.1-1.5,4.2-2.9c2.8-2.8,1.9-7.7,5.8-9.8c5.6-0.4,8.2,3.2,10,7.7
		c0.1,0.6,0.2,1.3,0.3,1.9c0.1,1.3,0,2.5,0,3.8c-0.1,1.9-0.5,3.6-1.6,5.2c-1.1,1.7-2.5,3.2-4.3,4.2c-1.4,0.8-2.6,1.9-3.2,3.5
		c-0.5,1.3-1.1,2.6-1.7,3.8c-1.1,2.1-2.5,4.1-4.3,5.6c-2.8,2.1-5.9,3.7-9.5,4.1c-3.5,0.1-6.9,0.3-10.3-0.2c-3.8-1.8-6.1,0.7-8.4,3.1
		c-1.4,1.1-2.8,2.1-4.6,2.3c-0.6,0-1.1-0.3-1.5-0.8C125.1,200.6,125.2,199.7,125.6,198.9z"/>
	<path id="XMLID_1151_" class="st4" d="M341.6,266.3c3.6-9,5.4-18.6,7.6-28c1-4.3,3-7.2,7.5-7.7c4.4-0.5,8.1-2.9,12.3-4
		c-3.5,35.7-20.1,64.1-48.3,85.9c-0.4,0.3-1.1,0.2-1.7,0.2c-0.4-2.3,1.2-3.8,2.3-5.4c4.5-5.6,10.7-9.7,14.4-16
		c1-1.7,1.8-3.5,2.9-5.1c1.7-1.8,2.4-4.2,3.2-6.5c1.1-2.9,2.8-5.5,3.6-8.5C348.4,266.4,344.3,266.9,341.6,266.3z"/>
	<path id="XMLID_1150_" class="st5" d="M164.4,157.9c-2,3.2-1.4,7.6-5,10c-2.1-3.8-5.6-4.2-9.6-4.2c-23.5,0.1-46.9,0-70.4,0.1
		c-5,0-10,0.1-14.9-0.6c-3.6-0.6-4.4-3.4-4.9-6.3c1.8-2.9,4.7-3.1,7.6-3.1c29.9-0.2,59.8-0.1,89.7,0c2.5,0,5,0.1,7,2
		C164.6,156.3,164.7,157,164.4,157.9z"/>
	<path id="XMLID_1149_" class="st6" d="M64.5,163.1c1.6-2,3.8-1.3,5.8-1.3c28,0,56.1,0.1,84.1-0.1c5.2,0,6.7,1.4,5,6.2
		c-0.7,1.6-1.9,2.4-3.6,2.7c-20.8-1.3-41.7-0.6-62.5-0.8c-3,0-6.3,0.6-8.9-1.7c-0.6-0.2-1.4-0.7-1.7-0.5
		C74.8,173.5,69.3,169.8,64.5,163.1z"/>
	<path id="XMLID_1148_" class="st7" d="M256.8,86.9c0.7-9.4,5.4-12.8,13.8-9.8c2.3,0.8,3.1,0.2,4.5-1.4c8.3-8.9,19.9-8.4,27.7,1.2
		c1.5,1.8,3,2.6,5.2,2.6c3.8,0,6.8,1.6,8.7,5c-2.2,2-5,1.9-7.7,1.9C291.6,86.5,274.2,85.9,256.8,86.9z"/>
	<path id="XMLID_1147_" class="st8" d="M256.8,86.9c1.8-2.5,4.4-2.5,7.2-2.5c17.6,0.1,35.2,0,52.7,0c-0.1,4.1,1.2,8.9-5,10
		c-4.7,1.4-9.5,0.6-14.2,0.7c-13,0.1-26.1,0.1-39.1,0c-2.9,0-5.8,0.3-8.5-1.2c-0.8-0.5-1-1.2-0.6-2.1
		C251.2,89.3,253.7,87.7,256.8,86.9z"/>
	<path id="XMLID_1146_" class="st9" d="M164.5,156.8c-2-1.2-4.3-1.3-6.6-1.3c-30.5,0-61.1,0-91.6,0c-2.3,0-4.6,0-6.6,1.3
		c0.5-4.4,2.7-6.9,7.4-6.3c2.8-1.6,5.9-1.9,9-1.9c28.2,0,56.5,0,84.7,0c3.5,0,7.2-0.2,9.7,3.1C171.4,156.9,168.8,157.8,164.5,156.8z
		"/>
	<path id="XMLID_1145_" class="st10" d="M188.2,300.4c-7.2,3-15.5,2.4-22.6,6.1c-6.8-0.8-13.4,1.4-20.1,2
		c-10.1,0.9-20.4,1.8-30.2-1.2c-14.3-4.3-20.5-14.9-10.4-30.2c5.8-8.7,14.1-14.9,22.4-21.1c0.9-0.7,2.4-0.5,3.6-0.7
		c0.7-0.3,1.2-0.1,1.6,0.6c0.3,1,0.2,1.9-0.3,2.7c-6.8,5.5-13.5,11-19.3,17.5c-4.2,4.8-9,9.7-7,16.9c2.1,7.4,8.9,8.9,15.2,9.9
		c8.4,1.3,16.9,1.4,25.4-0.2c13.3-0.5,26-5,39.3-6c1.1,0.2,1.9,0.8,2.6,1.7C188.7,299.1,188.6,299.8,188.2,300.4z"/>
	<path id="XMLID_1143_" class="st11" d="M300.7,104.1c2,1,4,1.9,5.9,2.9c0.7,0.6,0.8,1.4,0.5,2.2c-0.8,0.9-3.9,1.2-1,3.3
		c0.2,0.9,0,1.8-0.5,2.5c-3.3,3.2-7.5,3.2-11.6,3.5c-1.8,0.2-3.5,0.9-5.3,0.2c-1,0-1.5-2.2-2.9-0.7c-0.9,1.1-2,1.8-3.3,2.2
		c-1.2,0.4-2.4,0.5-3.6,0.4c-4.2-1-8.8-0.8-12.2-4c-0.4-0.4-0.8-0.9-1.1-1.4c-1.3-5.3-6.7-5.6-10.2-8.2c-0.1-3.3,3.1-4.1,4.7-6
		c0.8-0.6,1.6-0.9,2.6-0.9c4.5,2.6,9.1,4.8,14.5,3.1c0.8-0.2-0.1-0.3,0.6,0c6,2.9,11.5,2.5,17.1-1.1
		C296.7,100.9,299.3,101.9,300.7,104.1z"/>
	<path id="XMLID_1142_" class="st12" d="M261.8,100.4c-0.4,0.5-0.8,1-1.2,1.4c-6,2.1-7.7,1.2-12.1-5.8c-0.2-1.1,0-2.1,0.8-2.9
		c18.7,0,37.3,0,56,0c2.2,0,4.6-0.8,6.4,1.2c0,2.1-0.2,4-2.4,5c-1.8,1-3.9,1.7-5.9,1.7C289.6,101,275.7,102.3,261.8,100.4z"/>
	<path id="XMLID_1141_" class="st13" d="M170.8,153.1c-2.2-1.5-4.5-2.6-7.4-2.6c-30.3,0.1-60.6,0.1-90.9,0c-1.8,0-3.6,1.3-5.4,0.1
		c0.4-1.2,0.9-2.5,1.3-3.7c5.6-1.5,11.4-1.8,17.2-1.8c25.1,0.1,50.3,0,75.4,0.1c3.5,0,7.1-0.3,10.5,0.8c2.8,0.9,2.6,3,2,5.2
		c-0.2,0.6-0.5,1.2-0.9,1.8C172,153.3,171.4,153.4,170.8,153.1z"/>
	<path id="XMLID_1140_" class="st14" d="M129.9,252.8c-1.1-4.1-2.2-8.1-3.2-12.2c5.8-1.9,11.2,0,16.6,2c-0.1,1.8-0.4,3.3,2.2,4.2
		c10.9,4,22.3,5.6,33.5,8.3c3.3,0.8,7.1,0.5,9.8,3.2c0.5,0.8,0.6,1.8,0.6,2.7c-0.1,0.6-0.3,1.2-0.6,1.7c-0.5,0.4-1,0.6-1.6,0.6
		c-5.2,1.5-10.2,1.2-15.1-1.2c-1.3-0.6-2.7-1.2-4.2-1.2c-10.6,0-20.2-3.9-29.8-8C135.3,251.9,132.6,251.3,129.9,252.8z"/>
	<path id="XMLID_1139_" class="st15" d="M129.9,252.8c1-2.3,1.7-4.3,5.3-2.8c10.8,4.7,21.4,9.4,33.7,9.5c4.7,0,9,3.8,14.2,3.6
		c1.2-0.1,2.9-4,3.9,0.1c2.5,4.8-1.1,6.1-4.4,7.6c-0.6,0-1.2-0.1-1.8-0.4c-5-2.3-10.4-3-15.7-3.7c-9-1-17.3-4.3-25.8-6.9
		c-2.9-0.9-5-2.8-7.5-4.3c-0.3-0.1-0.6-0.2-1-0.2C130.6,254.5,130.2,253.6,129.9,252.8z"/>
	<path id="XMLID_1138_" class="st16" d="M180.6,111.8c4.3-4.1,9.9-6,15-8.7c1.7,1.8,3.9,0.7,5.8,1.2c5.6,1.3,10.7,3,12.1,9.6
		c-0.5,2.1-1.9,3.3-4,3.7c-1.3,0-2.4-0.6-3.3-1.5c-4.7-4.5-10.1-5-14-1.4c-3.7,3.4-3.3,8.4,1.1,14.2c0.6,1.2,0.2,2.4-0.4,3.5
		c-0.9,1.4-2.1,2.2-3.8,2.4c-4.8-2.2-7-6.3-8.1-11.2c-0.2-2,1.1-4.3-1.3-5.8C176.5,115.2,178.1,113.5,180.6,111.8z"/>
	<path id="XMLID_1137_" class="st17" d="M143.2,242.9c-5.6,0.1-11-1.6-16.6-2.3c-2.2-1.6-5.5-2.8-2-6.2c0.8-4.8,4.5-4,7.6-3.7
		c4.8,0.4,9.3,0.2,13.6-2.3c1.1-0.9,2-2.3,3.8-1.9c1.9,2.3,5.2,2.7,6.9,5.4c1.2,3.2-0.5,5.5-2.3,7.7c-2.1,2.6-4.9,3.7-8.2,3.6
		C145,243.2,144.1,243.1,143.2,242.9z"/>
	<path id="XMLID_1136_" class="st18" d="M173,146.7c-13.8,0-27.6,0-41.4,0.1c-21.1,0-42.2,0-63.3,0c1.3-1.9,3.2-1.1,4.9-1.3
		c0.6-1,1.3-2,2.5-2.4c1.8-0.7,3.7-0.7,5.5-0.7c27.8,0,55.7-0.1,83.5,0c1.9,0,3.7,0.4,5.6,0.4c0.7-0.2,1.4-0.3,2.1-0.3
		c1.7,0.7,1.7,2,1.2,3.5C173.5,146.2,173.2,146.5,173,146.7z"/>
	<path id="XMLID_1135_" class="st19" d="M261.8,100.4c2.6-1.9,5.6-1,8.4-1c13-0.1,26.1,0,39.1,0c-1.8,3.6-5.9,2.9-8.6,4.7
		c-3.8-1.5-7.1-1.4-10.2,1.8c-1.4,1.4-3.9,2.9-5.6,1.5c-4.4-3.5-9.2-2.5-14.1-2.1C266.9,105.8,264.7,102.3,261.8,100.4z"/>
	<path id="XMLID_1134_" class="st20" d="M336.6,141.8c-0.6,0-1.2-0.1-1.8,0c-2.4,0.2-5.4,0.6-6,3.1c-0.6,2.4,2.3,3.4,4.1,4.6
		c1.1,1.4,0.4,2.3-0.8,3c-0.9,0.3-1.8,0.3-2.7,0c-3.1-1.8-3.8-5.8-6.9-7.7c-1.4-1.5-1.6-3.1-0.6-4.8c0.4-0.7,1.1-1,1.7-1.4
		c-0.8,0-1.5,0.5-2.4,0.1c-3.8-3.3,0.9-5.3,1.2-8c0.3-1.2,1-2.4,0-3.6c-2.7-1.8-5.1-3.7-1.9-7.1c0.6-0.6,1.3-1.1,2.2-0.7
		c0.4,0.4,0.9,0.8,1.3,1.2c1.7,1,2.8,2.8,4.7,3.4c2.4,1.5,2.5,4.5,4.4,6.4C336,133.7,340.1,136.7,336.6,141.8z"/>
	<path id="XMLID_1133_" class="st21" d="M84.4,168c21.4,0,42.8,0,64.2-0.1c2.8,0,5.3,0.2,7.2,2.6c-5.2,3.7-11,2.4-16.7,2.2
		c-2-0.1-4-1.3-5.9,0.2c-15-1.1-30-1.1-45-0.1C86.2,171.9,84.7,170.4,84.4,168z"/>
	<path id="XMLID_1132_" class="st22" d="M314.2,316.6c-2.1,1.3-4.1,2.7-6.2,4c-0.9,0.5-1.2,1.5-2.1,2c-1,0.7-2,1.5-3,2.2
		c-0.9,0.5-1.8,1-2.7,1.5c-1.7,0.8-3.3,1.7-4.9,2.5c-2.3,1.2-4.7,1.7-7.2,2.2c-0.9,0.1-1.7,0-2.4-0.6c2-3,3.9-6,5.9-9.1
		c8.2-4.7,16.3-9.5,24.7-13.9c1.7-0.9,4.1-3.5,5.4,0.6c0.1,2.2-2,3.1-2.9,4.7C317.4,314.1,315.8,315.4,314.2,316.6z"/>
	<path id="XMLID_1131_" class="st23" d="M120.7,224.2c2.8-3.9,2.5-8.5,2.5-13c0-2.3-0.9-5,1.2-7c2.1,1.9,1.5,4.5,1.6,6.9
		c0.4,6.2,0.5,6.3,6.3,3.3c7.3-2.5,12.1,2.6,17.6,5.8c0.9,1.6,2.1,3.3-0.2,4.9C140.1,226.1,130.3,227.6,120.7,224.2z"/>
	<path id="XMLID_1130_" class="st24" d="M321.5,120.9c-4.8,5.4,3.5,3.8,3.6,6.7c-1.5,0.5-2.9,1-4.2,2c1,0.7,2.6-0.2,3.3,1.2
		c0.7,2-0.8,2.9-2,3.9c-1.2,1-2,2.1-0.4,3.4c0.9,0.6,0.5,1.8,1.2,2.5c-0.1,1.1-1,2.3,0.2,3.2c-0.3,3.9-4.3,2.2-5.9,4
		c-0.8,0.4-1.6,0.7-2.5,0.6c-2.7-1.9-3.2-4.8-3.7-7.7c0.3-5.4,4.4-9.8,3.6-15.6c-0.3-1.9-0.3-3.6-1.3-5.3c-0.6-1.4-1.1-2.8-0.9-4.4
		c0.6-1.3,0.9-3.1,3.1-2.5c0.9,0.1,1.8,0.4,2,1.5c-0.4,1.7,1.2,2.1,2,2.9C320.7,118.3,321.2,119.5,321.5,120.9z"/>
	<path id="XMLID_1129_" class="st25" d="M88.3,172.9c0.5-3.1,2.9-2.4,4.8-2.4c10.9,0,21.9,0.1,32.8-0.1c2.9,0,5.1,1,7.3,2.6
		c-0.8,0.8-1.6,1.7-2.4,2.5c-6.3,1-12.5,0.5-18.8-0.1c-1.9-1.4-3.7-1.7-6.2-0.8C99.9,176.7,93.8,177.2,88.3,172.9z"/>
	<path id="XMLID_1128_" class="st26" d="M208.1,98.1c2.9-0.8,5.8-1.7,8.7-2.5c5.4,4.7,10.5,9.5,10.7,17.4c-0.4,0.9-1.1,1.6-2,2
		c-1.9,0.8-3.8,0.8-5.7,0.3c-1.2-0.4-2.2-1-3.1-1.9c0-4.4-3.6-6.2-6.1-8.7C208.9,102.9,205.9,101.5,208.1,98.1z"/>
	<path id="XMLID_1126_" class="st27" d="M208.1,98.1c-0.2,4.7,4.5,5.4,6.7,8.3c1.6,2,4.9,3.4,2,6.7c-0.2,0.9-0.7,1.5-1.5,1.8
		c-0.9,0.2-1.6,0.1-2.3-0.6c-2.8-5.8-7.6-8.4-13.9-8.7c-1.8-0.1-3.4-0.3-3.6-2.5C199.8,101.4,204,99.8,208.1,98.1z"/>
	<path id="XMLID_1125_" class="st28" d="M231.8,93.1c0.8,0,1.7,0,2.5,0c2.6-1.2,5.4-0.4,8.1-0.6c6.5,6.1,6.7,9.5,0.8,14.9
		c-1.2,0.7-2.6,0.9-4,0.7c-1.8-0.3-3.1-1.2-3.8-2.9C234.8,101.1,229.8,98.2,231.8,93.1z"/>
	<path id="XMLID_1124_" class="st29" d="M231.8,93.1c0.3,4.3,4.1,7.1,5,11.2c-1.2,1.7,0.1,4.2-2,5.6c-1,0.8-2,1.3-3.3,0.9
		c-4.5-4.7-8-10.1-9.7-16.5C225.2,94.3,228.4,92.5,231.8,93.1z"/>
	<path id="XMLID_1123_" class="st9" d="M120.7,224.2c9.9,0,19.8,0,29.8,0c0.4,0.3,0.6,0.7,0.6,1.2c-0.3,0.7-0.9,1.2-1.7,1.2
		c-0.8,0.9-1.5,1.8-2.3,2.6c-9.2,1.2-18.3,0.4-27.5-0.1C117,226.8,118.7,225.4,120.7,224.2z"/>
	<path id="XMLID_1122_" class="st30" d="M336.6,141.8c1.5-5.1-2.6-7.8-4.9-11.2c-0.6-1.4-1.5-3,1-3.6c5,4.5,9.3,9.7,13.4,14.9
		c1.2,1.5,2.2,3,2.1,5C343.4,147.4,340.3,143.8,336.6,141.8z"/>
	<path id="XMLID_1121_" class="st31" d="M119.6,229.1c9.2-2,18.3-1.9,27.5,0.1c-3.9,3.4-8.7,3.5-13.4,3.2c-3.3-0.2-6.6-1.5-9,1.9
		C125.4,230.2,121.2,230.9,119.6,229.1z"/>
	<path id="XMLID_1120_" class="st32" d="M221.9,94.4c3.3,5.4,6.6,10.8,10,16.2c0.5,2.1-1.2,2.5-2.5,3.2c-0.9,0.2-1.8,0-2.5-0.7
		c-0.7-5.3-4.3-8.9-7.2-12.9c-1.1-1.5-2.8-2.4-2.8-4.5C218.5,95.2,220.2,94.8,221.9,94.4z"/>
	<path id="XMLID_1119_" class="st33" d="M112,175.4c6.3-2,12.5-1.8,18.8,0.1c-0.5,0.8-0.9,1.7-1.4,2.5
		C123.1,180.5,117.1,181.4,112,175.4z"/>
	<path id="XMLID_1118_" class="st34" d="M180.6,111.8c-0.5,1.7-3.8,3.4,0,5c0.4,3.1-2.1,3.7-4.2,4.7c-1.7,0.4-3.4,0.4-4.8-0.8
		c-0.5-1-0.5-1.9,0.3-2.8C174,114.8,177.1,112.9,180.6,111.8z"/>
	<path id="XMLID_1117_" class="st35" d="M132.5,215.7c-1.5,2-3,3.5-6,2.5c-3.4-1.1-1.8-3.6-2-5.5c-0.3-2.8-0.1-5.7-0.1-8.5
		c0.4-1.8,0.8-3.6,1.1-5.3c0.1,0.9,0.2,1.8,0.3,2.7c1.3,1.6,1.5,3.5,1.5,5.5C127.5,210.9,128.2,214.4,132.5,215.7z"/>
	<path id="XMLID_1116_" class="st36" d="M164.5,134.5c-0.4-0.1-0.9-0.2-1.3-0.3c-0.8-0.8-1.9-0.5-2.8-0.9c-1-0.8-1.9-1.7-2.4-2.9
		c0.8-0.8,1.7-1.7,2.5-2.5c1.7-0.7,3.1-2,5.1-1.5c1.8,1.4,3,3.1,3.2,5.4C168.2,134.2,166.5,134.6,164.5,134.5z"/>
	<path id="XMLID_1115_" class="st37" d="M165.7,126.8c-1.6,0.9-3.2,1.5-5.1,1.1c3.1-4.1,7.1-7.2,11.4-10c0,0.8,0.1,1.7,0.1,2.5
		c0.8,2.4-1.3,3-2.6,4.1c-0.6,0.4-1.2,0.9-1.8,1.3C167.1,126.4,166.4,126.8,165.7,126.8z"/>
	<path id="XMLID_1114_" class="st38" d="M315.6,113c-0.9,0.9-1.8,1.7-2.7,2.6c-0.5,0.4-1,0.5-1.6,0.3c-2-1.2-3.6-2.8-4.8-4.8
		c-0.2-0.6-0.1-1.1,0.2-1.6c0-0.8,0-1.6,0-2.4C309.6,109,312.6,111,315.6,113z"/>
	<path id="XMLID_1112_" class="st39" d="M243.1,93.1c-2.9,0-5.8,0-8.7,0c4.8-2.6,10-0.6,15-1.3c0,0.4,0,0.9,0,1.3c0,0.8,0,1.7,0,2.5
		C246.7,96,244.9,94.5,243.1,93.1z"/>
	<path id="XMLID_1111_" class="st40" d="M332.6,127c-1.2,1-0.9,2.3-1,3.6c-1.6-1.9-1.4-4.8-3.8-6.3c-0.3-0.3-0.5-0.7-0.3-1
		c0.1-0.3,0.2-0.5,0.4-0.5C330.2,123.4,331.9,124.7,332.6,127z"/>
	<path id="XMLID_1110_" class="st41" d="M160.7,133.1c1,0,1.9,0.2,2.5,1.2c-0.9,0-1.7,0.1-2.6,0.1c-2.1,0.7-4.1,1-6.2-0.2
		c0,0,0.1,0,0.1,0c0.7-0.9,1.5-1.7,2.2-2.6C158.1,131.8,159.6,131.8,160.7,133.1z"/>
	<path id="XMLID_1109_" class="st42" d="M321.5,120.9c-0.7-0.9-1.5-1.9-2.2-2.8c-0.3-1.1-0.2-1.8,1.2-1.2c1,0.6,2.3,1,2.4,2.5
		C322.4,119.9,322,120.4,321.5,120.9z"/>
	<path id="XMLID_1108_" class="st43" d="M320.5,116.9c-0.4,0.4-0.8,0.8-1.2,1.2c-0.7-1.1-4.5-0.8-1.7-3.6
		C318.6,115.3,319.5,116.1,320.5,116.9z"/>
	<path id="XMLID_1107_" class="st44" d="M160.7,133.1c-1.5,0-3,0.1-4-1.4c0.4-0.4,0.9-0.8,1.3-1.2
		C159.6,130.6,160.6,131.3,160.7,133.1z"/>
	<path id="XMLID_1106_" class="st42" d="M327.9,122.8c0,0.5,0,1,0,1.5c-1.7-0.8-2.9-2.1-3.7-3.8
		C326.1,120.3,326.8,121.9,327.9,122.8z"/>
	<path id="XMLID_1105_" class="st45" d="M393.7,222.8c0.4,1.3,2,2.2,1.5,3.9C394.7,225.4,390.2,225.7,393.7,222.8z"/>
	<path id="XMLID_1104_" class="st2" d="M74.6,144.3c-0.4,0.4-0.9,0.8-1.3,1.2c0.3-2.1-0.8-4.5,1.3-6.2c0,0,0,0,0,0
		C75.9,141,75.9,142.6,74.6,144.3z"/>
	<path id="XMLID_1103_" class="st9" d="M182,270.6c0.8-3.1,7.1-2.4,5.1-7.4c0.3-0.2,0.6-0.4,0.9-0.6c1.7,1,1.7,3.1,2.6,4.6
		c2,2.3,4.6,1.3,7,1.3c21.3,0.1,42.6,0.1,63.8,0c1.7,0.1,2.7-1.1,3.9-2c1-0.3,1.7,0.2,2.3,0.8c2,2.1,3.9,0.2,5.6-0.5
		c17.6-7.1,34.8-15.4,51.6-24.2c2.6-1.4,5.4-3.9,7.9,0.2c0.1,0.4,0.1,0.8,0.2,1.3c-9.6,6.8-20,12.1-30.6,17.1
		c-1.1,0.6-2.2,1.1-3.3,1.7c-10.4,4.6-20.7,9.6-31.4,13.5c-4.1,1.5-6.8,5.5-11.5,5.7c-3.3-0.8-6.5-1-9.9-0.9
		c-21.5,0.1-43.1-0.3-64.6,0.2c-3.5,0.1-6.2-0.4-6.3-4.7C175.7,272.5,177.4,270,182,270.6z"/>
	<path id="XMLID_1102_" class="st46" d="M301.7,260.3c10.4-5.4,20.3-11.7,31.2-16.2c-0.1,8.8,2.1,17.5,1.3,26.4
		c-1.1,2.6-3.2,3.8-5.8,4.5c-0.6,0.1-1.1,0.1-1.7,0c-1.4-0.4-2.3-1.5-3.1-2.5c-0.5-0.6-1.1-1.2-1.7-1.7c-1.7-1.6-3.4-0.9-5.2,0
		c-2.7,1.3-5.4,2.6-8.5,2.1c-2.2-0.9-5.8,0.5-6.2-3.6c1.6-1.9-0.8-2.4-1.3-3.5C300,263.8,300.3,262,301.7,260.3z"/>
	<path id="XMLID_1101_" class="st47" d="M311.7,216.7c2.1,1.2,3.8,2.9,5.1,4.9c-6.5,8.1-15.5,13.4-23.1,20.3c-1.1,1-2.2,1.5-1.6,3.2
		c-6.7,5.5-15.2,6.9-22.8,10.5c-2.6,1.2-5.4,1.9-8,3.2c-1.1,0.5-2.3,1-3.4,1.4c-1.8,0.5-3.7,0.6-5.6,0.4c-3.5-0.3-5.2-2.9-7.1-5.3
		c-0.9-1.1-2-2.2-2.6-3.6c-0.1-0.6-0.2-1.2,0-1.7c2.7-2.3,6.4-0.9,9.3-2.4c1.1,0.6,1.9,1.5,2.5,2.6c1.7,3.4,2.8,0.4,4.1-0.4
		c9.8-1.4,17.1-7.8,25-12.7c8.6-5.3,16.3-11.8,23.9-18.6C308.5,217.5,309.9,216.6,311.7,216.7z"/>
	<path id="XMLID_1100_" class="st48" d="M311.7,209.2c-3.2,0.5-5.7,1.4-2.6,5.1c-14.9,10.9-28.5,23.8-45.9,31.2
		c-2.5,1-4.8,2.3-7.5,2.8c-4.6-3.2-3.1-6.4,0-9.6c22.4-8.3,40.2-23,55.2-41.3c3.9-1.3,6.8,0.8,9.6,2.9
		C320.3,205.8,317.4,208.8,311.7,209.2z"/>
	<path id="XMLID_1099_" class="st49" d="M256.8,247.9c6.2-5.6,14.4-7.7,21.3-12.3c8.2-5.5,16.2-11.1,23.2-18
		c2.4-2.3,4.8-3.3,7.9-3.3c1.2,0.4,2,1.3,2.5,2.4c-11.7,10.9-24.3,20.7-38.2,28.4c-4.5,2.5-8.6,8.5-15.3,5.3
		C255.8,250.6,256.1,249.4,256.8,247.9z"/>
	<path id="XMLID_1098_" class="st50" d="M341.6,266.3c2.1-0.1,4.3-2.6,6-0.8c1.5,1.7,0.3,4.2-1,6.1c-6.7,3.1-10.9,9.4-16.8,13.5
		c-6.3,4.4-12.1,9.5-18.8,13.2c-3.8-0.1-5.1,3.9-8.1,5c-0.5,0.3-1,0.6-1.5,0.8c-2.9,1.1-5.8,2.3-7.9,4.7c-1,0.8-2,1.3-3.2,1.6
		c-4.7-0.5-7.5,5.4-12.6,3.9c-0.7-0.4-1.5-0.9-2.2-1.3c0.1-2.9,2.1-4.2,4.5-5.3c15.8-7.3,30.9-15.9,44.6-26.7
		c4.2-3.3,8.2-6.8,12.2-10.4C338.3,269.1,340,267.7,341.6,266.3z"/>
	<path id="XMLID_1097_" class="st10" d="M260.5,257.6c10.3-5.1,21.6-7.8,31.7-13.3c9.7-6.7,20.6-10.6,31.5-14.7
		c0.5-0.2,1.2,0.3,1.8,0.5c0.9,0.5,1.7,1,2.6,1.5c-0.3,3.7-3.7,4.1-6,5.3c-16.3,8.1-33.1,14.9-50.1,21.4c-3.1,1.2-5.9,2.9-9.2,3.7
		C260.3,261.4,259.2,260.1,260.5,257.6z"/>
	<path id="XMLID_1096_" class="st51" d="M266.8,267.8c-0.4-0.5-0.7-1-1.1-1.5c-0.8-0.7-1-1.6-0.9-2.6c0.8-2.7,3.1-3.7,5.5-4.6
		c16.2-6.1,32.2-12.8,47.9-20.2c2-1,4-2.3,6.4-0.9c0.3,1.1,1.4,1.1,2.2,1.3c0.1,2.4-1.9,3.1-3.4,3.9c-16.8,8.5-33.5,17.1-51.2,23.9
		C270.4,267.7,268.8,268.8,266.8,267.8z"/>
	<path id="XMLID_1095_" class="st52" d="M366.2,179.9c6,5.3,11.6,10.9,16.4,17.2c2.2,2.8,2.1,4.7-1,6.3c-3.7,1.9-7.4,3.8-11,5.6
		c-2.9-1-3.1-3.5-3.1-5.9c0-3.5-0.5-6.8-1.2-10.2c-0.1-2.2-0.9-4.4-1.2-6.6c-0.2-1.8-0.9-3.6-0.3-5.5
		C365.1,180.3,365.6,180,366.2,179.9z"/>
	<path id="XMLID_1094_" class="st53" d="M325.4,230.1c-7.2,2-13.4,6.2-20.3,8.9c-4.3,1.7-8.7,3.5-13,5.2c-0.8-0.3-2.9-0.6-1.7-1.5
		c8.9-6.8,16.8-15,26.3-21.1C320.1,224,322.9,226.9,325.4,230.1z"/>
	<path id="XMLID_1093_" class="st54" d="M336.7,270.5c-3.2,7-9.7,10.8-15.4,14.9c-13.2,9.5-27.1,18.1-42.4,24.1
		c-1.4,0.5-2.3,2.2-3.5,3.4c-0.4-0.3-0.8-0.7-1.3-1c-1.2-5.2,3.3-6.1,6.2-7.8c4.4-2.6,9.9-3.2,13.8-7c11.4-7.5,22.7-15,33.8-22.9
		c2.1-1.2,4.1-2.5,6.2-3.7C335,271.5,335.8,270.1,336.7,270.5z"/>
	<path id="XMLID_1092_" class="st55" d="M266.8,267.8c18.6-7.6,36.8-16.1,54.6-25.4c1.8-0.9,3.5-2.1,5.3-3.1c3.4-1.1,7-2.6,6,3.6
		c-1.7-1-3.2-1.4-5.2-0.3c-18.2,10.4-37.3,18.9-56.7,26.9C269,270.3,266.4,272.6,266.8,267.8z"/>
	<path id="XMLID_1091_" class="st55" d="M324.5,238c-18.7,7.9-37,16.7-56.1,23.5c-1.4,0.5-2.6,1.3-3.2,2.8c-1.2,0.2-1.9-0.3-2.6-1.2
		c-0.2-0.5-0.1-1,0.3-1.4c6.1-5.8,14.5-6.5,21.8-9.9c14.4-6.7,29.7-11.6,43.3-20.1C332,236.6,325.2,235.6,324.5,238z"/>
	<path id="XMLID_1090_" class="st56" d="M329.2,214.2c-2-0.2-3.7-0.9-5-2.5c-0.1-5.3,4-8.5,5.9-12.8c0.9-0.8,2.2-1,3.3-1.6
		c5.3-3,5.6-5,1.1-9.1c-0.5-0.4-0.6-1-0.4-1.7c4.4-1.5,4.9-7,9.1-8.7c1.1,1.2,1.3,2.7,1.6,4.2c1,3.2,3.3,5.9,2.7,9.5
		c-3.9,7-8.6,13.5-13.2,20C333.1,213.2,331.7,214.9,329.2,214.2z"/>
	<path id="XMLID_1089_" class="st57" d="M329.2,214.2c5.1-2.8,7.3-8.3,10.3-12.7c2.3-3.4,4.9-6.4,7.1-9.7c0.9,0.1,1.5,0.6,2,1.3
		c0.6,1.3,1.1,2.6,1.5,4c0.1,0.6,0.2,1.1,0.2,1.7c-2,7.5-8.7,12.3-11.4,19.4c-0.3,0.7-1.5,0.4-2.2-0.2
		C333.8,217.4,331.3,216.2,329.2,214.2z"/>
	<path id="XMLID_1088_" class="st58" d="M336.7,217.9c4-6.9,9.8-12.6,12.6-20.2c2.1-0.3,3.3,1.1,4.6,2.5c1.2,1.6,1.6,3.3,1.1,5.2
		c-3.6,5.4-6,11.7-12.1,15.1C340.7,219.9,338.4,219.6,336.7,217.9z"/>
	<path id="XMLID_1087_" class="st59" d="M342.9,220.5c4.1-4.9,6.8-10.8,11.6-15.1c0.9-0.1,1.5,0.3,2.1,0.8c1.5,1.5,3.7,2,5.3,3.4
		c0.6,0.6,1,1.3,1,2.2c-5,3.1-10,6.1-14.8,9.4C345.9,222.7,344.4,222.3,342.9,220.5z"/>
	<path id="XMLID_1086_" class="st60" d="M343.4,183c-0.2-1.6-0.4-3.3-0.6-4.9c-1.6-1.3-2.2-3-1.9-4.9c1.4-4,2.6-8.1,5.8-11.1
		c2.1,2,4.2,3.9,6.3,5.9c1.3,5.7-1.7,9.9-4.8,14C347,183.6,345.4,184.5,343.4,183z"/>
	<path id="XMLID_1085_" class="st61" d="M346.6,162c-0.9,4.1-2.7,7.7-5.2,11c-3-0.1-3.1-3.2-4.7-4.8c-1.2-1.8-2.3-3.7-2.7-5.9
		c-0.3-2.9-0.7-5.9,0.7-8.7c0.2-0.2,0.5-0.5,0.7-0.7C340.4,154.4,343,158.9,346.6,162z"/>
	<path id="XMLID_1084_" class="st62" d="M343.4,183c5.5-1.3,6.2-6.3,8.1-10.4c0.7-1.4,1-3.1,1.4-4.6c1.6,0.9,3,2,3.8,3.7
		c-0.8,8-1.6,16.1-9,21.4c-0.4-0.4-0.8-0.9-1.2-1.3C346.4,188.5,344.6,185.8,343.4,183z"/>
	<path id="XMLID_1083_" class="st63" d="M352.9,200.5c-1.2-0.9-2.4-1.8-3.6-2.7c0-0.3-0.1-0.7-0.1-1c2.4-5.9,6.7-10.8,8-17.3
		c0.4-2.4,2.5-3.1,4.7-3.1c1.5,1.2,2.9,2.4,4.4,3.6c-0.4,0.2-0.8,0.4-1.2,0.6c-1.9,5.4-5.1,10.2-7,15.6
		C357.3,198.1,356,200.6,352.9,200.5z"/>
	<path id="XMLID_1082_" class="st64" d="M361.9,176.3c-5.8,2.8-3.4,9.9-7.4,13.9c-1.9,1.9-2.4,5.2-5.3,6.5c-1.4-0.9-1.3-2.3-1.4-3.6
		c4.9-6.3,5.7-14.4,9-21.4C358.4,173.2,360.2,174.7,361.9,176.3z"/>
	<path id="XMLID_1081_" class="st65" d="M330.4,199.2c-0.2,5.1-4.6,8.1-6.3,12.5c-4-1.4-7.9-3.3-12.4-2.6c5-0.8,5.9-5.7,8.7-8.7
		c-0.3-1.9,1.2-2.1,2.2-1.7C325.2,199.8,327.9,198.4,330.4,199.2z"/>
	<path id="XMLID_1080_" class="st66" d="M362.9,211.8c-0.4-0.4-0.9-0.7-1.3-1.1c2.2-4.5,3.5-9.2,3.4-14.3c0.4-1.8-0.2-4.3,2.7-4.6
		c1.9,5.6,0.6,11.7,2.9,17.2C368,210,365.5,210.9,362.9,211.8z"/>
	<path id="XMLID_1079_" class="st67" d="M331.2,152c1.2-0.5,1.6-1.4,1.7-2.6c1.5,0.7,1.7,2.3,2.5,3.5c0,0,0,0.1,0,0.1
		c-1,0.7-0.4,3.1-2.6,2.7C331.6,154.8,331,153.6,331.2,152z"/>
	<path id="XMLID_1078_" class="st68" d="M263,286.7c-0.2,3.9-3.3,6.4-4.8,9.5c-4.7,9.4-12,11.3-21.3,10.6c-1.1-0.1-2.3,1.6-3.5,2.4
		c-1.7,1.2-4,3.1-5.6,2.1c-5.6-3.5-11.5-3.1-17.7-2.8c-2.3,0.1-4.9-1.1-6.4-3.4c-0.8-1.3-1.7-2.6-3.4-1.4c-4.6,3.1-7.2,0.4-9.6-3.1
		c0.9-2.1,2.9-2.8,4.9-3.3c7.3-2,14.5-4,21.9-5.5c5.9,2.2,11.6,3.4,16.2-2.6c2.2-1.8,4.6-0.9,7-0.7c4.5,0.4,8.9,0.2,12.8-2.7
		c1.4-1,2.9-1.6,4.6-1.8C260.2,284,262.2,284.3,263,286.7z"/>
	<path id="XMLID_1072_" class="st69" d="M263,286.7c-1.4-1.1-3.1-1.6-4.9-1.6c-1.1-1.1-1.2-2.3-0.2-3.6c0.7-1.9,1.7-3.5,3.9-4.4
		c12.5-5.1,25-10.4,37.4-15.6c2,1.1,0.8,3.8,2.6,5.1c2.7,0.1,1.4,1.7,1,2.9c-1.3,1-3.1,1.2-4.4,2.2c-2.7,2-5.6,3.6-9.1,3.4
		c-2-0.1-3.7,0.3-4.8,2.1c-0.4,0.7-1.4,1.9-1.6,1.7c-6.6-5-6.4,4.6-10.4,4.9c-2.6,1-6.3-1.8-8.1,2.2
		C263.8,286.3,263.4,286.5,263,286.7z"/>
	<path id="XMLID_1070_" class="st70" d="M272.9,282.7c1.4-4.1,4.8-6.4,8-9c1.5,1.4-0.1,3.5,1.6,4.6c1.1-3.4,1.7-6.6,7-4.5
		c3,1.2,5.9-2.2,9.1-3.1c2.6-0.7,4.8,0.7,5.4,2.7c0.6,2-2.2,2.6-3.6,3.5c-8.6,5.8-17.5,11.2-27.4,14.7c-0.8-2.1-1.7-4.1-2.5-6.2
		C269.7,283,272.5,284,272.9,282.7z"/>
	<path id="XMLID_1069_" class="st71" d="M308,271.8c3.3,0.6,6-1.3,8.8-2.5c2.1,0.1,4.3,0,6.3,1c0.4,0.5,0.8,0.9,1.2,1.4
		c0.9,1.5,1.2,2.9-0.6,4c-3.3-1.6-5.5,0.8-7.6,2.6c-13.8,11.7-30.2,18.6-46.4,26c-0.6,0.3-1.2,0.3-1.8-0.1c-1.7-0.9-1.1-2.5-1-3.8
		c3.1-3.6,8.2-4,11.7-7.1c3-2.3,6.7-3.3,10-5.2c1.8-0.7,3.7-1.4,5.3-2.5c5.3-3.5,11.4-5.9,15.7-10.8
		C309.7,273.4,307.4,273.4,308,271.8z"/>
	<path id="XMLID_1068_" class="st72" d="M339.3,286.9c-0.2,1.9-1.1,3.4-2.4,4.8c-2.2,2.2-4.5,4.3-7.3,5.7c-2.1,0.9-3.9,2.1-5.1,4
		c-8.9,8-20,12.5-30.3,18.2c-0.8,0.4-1.6,0.1-2.3-0.5c-0.4-2.9-2.6-2.4-4.6-2.6c-2.4-0.2-4.9,0.5-7-1.1c1.5-1.7,3.5-1.7,5.6-1.8
		c8,0.4,13.9-4.6,20.2-8.3c2.1-1.2,4.1-2.7,6.5-3.5c8-3.6,14.3-9.7,21.4-14.5C335.7,286.2,337.3,283.2,339.3,286.9z"/>
	<path id="XMLID_1067_" class="st73" d="M267.9,304.2c6-4.6,13.1-6.6,19.8-9.9c11-5.3,21-12,30.5-19.7c1.9-1.5,3.8-3.3,4.9,0.7
		c0.4,0.5,0.4,1.1,0,1.6c-12.1,9.4-25.1,17.4-38.9,24.1c-2.4,1.2-4.8,2.5-7.4,3.1c-2.5,0.5-4.1,1.9-5,4.2c-0.4,0.5-0.8,0.9-1.4,1.1
		C267.1,308.7,268.8,305.9,267.9,304.2z"/>
	<path id="XMLID_1066_" class="st74" d="M291.9,319c11.3-5.3,22.3-11.2,32.3-18.7c1.1-2,3.5-2.3,5-3.7c2.3-2.1,4.8-3.9,7.8-4.9
		c-3.4,7-9.5,11.4-15.1,16.4c-1.2-1.9-2.2-0.8-3.5,0c-8.2,4.7-16.5,9.2-24.5,14.1c-1.6,1-1.9,1-2.1-0.7
		C291.7,320.6,291.8,319.8,291.9,319z"/>
	<path id="XMLID_1065_" class="st75" d="M308,271.8c0.3,2.2,3.7-0.5,3.7,2.3c-9.3,5.8-18.5,11.5-28.3,16.5c-2.8,1.4-5.6,2.7-8.6,3.5
		c-1.1,0.3-2.7,0.5-2.1-1.7c0-0.3,0-0.6,0.2-0.9c3.3-4.3,8.9-4.8,13.1-7.7c5.5-3.7,11.4-6.9,17.5-10.6c-1.9-1-3.5-1.8-5.1-2.6
		c0.9-2.4,2.7-1.1,4.2-1.1C303.6,272.4,306.7,270,308,271.8z"/>
	<path id="XMLID_1064_" class="st76" d="M272.8,292.5c9-0.2,15-7.1,22.7-10.2c5.6-2.3,9.3-8.4,16.1-8.2c-4.2,6.5-11.3,8.9-17.5,12.5
		c-1.6,0.9-3.6,1.1-5,2.5c-3.3,1.7-6.7,3.3-10,5c-2.5,0.3-5.1,4.8-7.6-0.1C272.1,293.5,272.5,293,272.8,292.5z"/>
	<path id="XMLID_1063_" class="st77" d="M218.1,292.8c-9.1,2.6-18.3,5.2-27.4,7.7c-0.8,0-1.6-0.1-2.4-0.1c0-0.5,0-1-0.1-1.5
		c-1.4-3.4,1.5-3.6,3.3-4.3c3.2-1.3,6.7-1.4,9.7-3.3c3.9-1,8.2,0.7,12-1.5c0.6-0.2,1.2-0.3,1.8-0.3
		C216.9,289.7,218.6,290.2,218.1,292.8z"/>
	<path id="XMLID_1062_" class="st78" d="M295.5,297.8c-3.5,4.7-9.3,4.9-13.9,7.3c-3.1,1.6-6.2,3.1-7.4,6.7c-1.7-0.2-2.9-1.1-3.9-2.5
		c0,0,0.3-0.4,0.3-0.4c1.5-2.6,3.2-4.5,6.4-5.2c4.2-1,8.1-3.2,11.8-5.5C291,296.8,293.1,295.8,295.5,297.8z"/>
	<path id="XMLID_1061_" class="st79" d="M286.7,315.3c-2.1,0-4.3,0.1-6.4,0.1c-0.9-0.4-1.8-0.8-2.7-1.2c4.6-0.9,7.4-6.4,12.9-5.1
		c0.7,2.2-1.8,2.8-2.3,4.5C287.8,314.2,287.3,314.7,286.7,315.3z"/>
	<path id="XMLID_1060_" class="st80" d="M271.7,294c2.5,3,5.1-0.8,7.6,0.1c-2.9,4.6-8.6,3.5-12.4,6.2
		C268.5,298.2,270.1,296.1,271.7,294z"/>
	<path id="XMLID_1057_" class="st81" d="M272.9,282.7c-0.8,0.9-1.6,1.8-2.4,2.7c-2.2-0.7-4.3-0.8-6.2,0.6
		C265.3,280.1,270.2,284.1,272.9,282.7z"/>
	<path id="XMLID_1056_" class="st82" d="M254.2,336.4c-4.5,0-9.1,0-13.6,0C245.2,334.6,249.7,334.6,254.2,336.4z"/>
	<path id="XMLID_1053_" class="st83" d="M74.6,144.3c0-1.7,0-3.3,0-5c26.3,0,52.6,0,78.8,0c5.8,0,11.6-0.5,17.3,1.1
		c1.8,0.1,2.1,1.1,1.2,2.5c-0.2,1.1-0.5,1.7-1.9,1.7C138.2,144.5,106.4,144.4,74.6,144.3z"/>
	<path id="XMLID_1052_" class="st84" d="M164.5,134.5c1.3-0.9,2.5-1.7,3.8-2.6c0.5-0.8,1.3-1.2,2.3-1.3c2.5,0.1,4.8,0.7,5.8,3.5
		c0,0.6-0.1,1.2-0.4,1.7c-0.4,0.4-0.9,0.6-1.5,0.8c-1.6,0.4-3.2,0.9-4.9,0.2C167.5,136.7,165.9,135.9,164.5,134.5z"/>
	<path id="XMLID_1051_" class="st36" d="M169.5,136.8c1.5-0.8,2.9-1.4,4.6-1.2c2,1.5,1.8,3.5,1.2,5.6c-0.5,1-1.2,1.7-2.3,1.9
		c-0.4-0.1-0.7-0.1-1.1-0.2c0-1-0.3-1.9-1.2-2.5C170.3,139.2,169.9,138,169.5,136.8z"/>
	<path id="XMLID_1050_" class="st85" d="M154.4,134.2c2.1,0.1,4.1,0.1,6.2,0.2C158.5,136.1,156.4,136.2,154.4,134.2z"/>
	<path id="XMLID_1049_" class="st86" d="M130.7,199.2c2.1-2.1,3-6.6,7.5-3.8c13.4,2.1,24.7,10.7,38.3,12.3c3.2,0.4,7.1-0.5,9.8,2.5
		c0.6,2.5-0.2,4.6-1.5,6.6c-0.5,0.5-1.1,0.8-1.7,1c-13-0.5-25.1-4.4-36.6-10.2C141.3,204.9,135.4,203.2,130.7,199.2z"/>
	<path id="XMLID_1048_" class="st87" d="M125.7,208c0-2.1,0.1-4.2,0.1-6.3c0.4,0.1,0.7,0.1,1.1,0.1c2.8-1.1,5.2-0.3,7.6,1.3
		c12.7,8.1,26.5,13.7,41.5,16c2.8,0.4,5.9,0.5,7.8,3.2c0.5,1.4,0.3,2.6-0.6,3.8c-7.1,2-14,0.4-20.6-1.6c-4.1-1.2-8.2-2.8-12.4-4.1
		C142.4,215.4,132.7,214.4,125.7,208z"/>
	<path id="XMLID_1047_" class="st88" d="M183.1,221.7c-16.5-1.5-31.7-7.4-46.2-14.9c-3.3-1.7-5.8-4.9-9.9-5.1
		c1.3-0.8,2.5-1.7,3.8-2.5c2.5,0.3,4.8,0.8,7.2,2.2c14.1,8.1,29.2,13.6,45.5,15.4C184.6,218.5,184.6,220.2,183.1,221.7z"/>
	<path id="XMLID_1046_" class="st89" d="M185.8,210.9c-10.4-1.7-20.8-3.6-30.6-7.8c-5.6-2.4-10.5-6.6-17-6.6c-0.1,0-0.3-0.3-0.3-0.5
		c0-0.2,0.2-0.4,0.3-0.5c4.2,0,8.3,0,12.5,0c11.7,0.2,22.2,6,33.6,7.3c2.3,0.2,3.7,1.8,3.9,4.2c0.1,1.1-0.1,2.1-0.6,3
		C187.2,210.6,186.6,210.9,185.8,210.9z"/>
	<path id="XMLID_1045_" class="st90" d="M173.5,166.6c-0.1-0.3-0.1-0.7-0.1-1c0.9-1.7-0.7-3.7,0.5-5.4c0.4-0.5,0.8-1,1.3-1.4
		c2.1-1.8,4.2-1.1,6.4,0c7.7,4,15.7,2.9,23.7,1.3c4,0.1,6.7,2.1,7.8,6.1c0.1,1-0.1,1.9-0.4,2.8c-0.6,1.1-1.6,1.8-2.9,2
		c-1.7,0-3.3-0.9-4.9-1.2c-6.6,1.8-13.4,0.1-20,1.3c-0.9,0-1.7-0.3-2.4-0.7C180.1,167.8,176.2,168.5,173.5,166.6z"/>
	<path id="XMLID_1044_" class="st91" d="M186.9,208c0.3-3-1.4-3.6-4.1-3.9c-11.1-1.5-21.6-5.2-32.1-8.6c3.2-0.5,5.8-2.5,8.7-3.8
		c9.4,2.3,19.1,3.5,28.1,7.3c1.1,1.1,2,2.3,2.4,3.8c0.2,1.9-0.3,3.6-1.4,5.1C188,208.4,187.5,208.4,186.9,208z"/>
	<path id="XMLID_1043_" class="st92" d="M186.9,200.5c-5.4-2.9-11.5-3.4-17.3-4.8c-3.6-0.9-6.9-2.1-10.1-3.9c1.2-1.7,2.5-3.3,3.7-5
		c6.5,3.3,13.6,3.6,20.5,4.5c1.3-0.1,2.6-0.3,3.7,0.7c1,1.5,1.1,3.1,1,4.9C188.3,198.2,188,199.5,186.9,200.5z"/>
	<path id="XMLID_1042_" class="st93" d="M184.4,193c-5.6-0.9-11.3-1.6-16.9-2.6c-2-0.3-4.1-1-4.3-3.6c0.4-1.2,0.8-2.5,1.2-3.7
		c6.8-1.3,12.9,2.2,19.4,2.8C186.5,188,184.8,190.5,184.4,193z"/>
	<path id="XMLID_1041_" class="st94" d="M184.4,193c-2-2-0.3-4.1-0.1-6.2c-0.2-1.3-0.3-2.6-1-3.8c-2-2.3-5-1.8-7.4-2.8
		c-2-0.8-5.4-0.7-4-4.6c0.5-1.7,0.9-3.3,1.4-5c0.5-0.4,1-0.4,1.6-0.1c2.7,3.7,7.1,3.1,10.9,4c0.8,0.3,1.5,0.9,1.9,1.8
		c0.2,3.9,1.5,7.7,1.2,11.7c-0.3,1.5-0.6,2.9-2,3.8C186,192.1,185.2,192.6,184.4,193z"/>
	<path id="XMLID_1040_" class="st95" d="M185.6,183.1c0,1.4,0.3,2.8-1.2,3.7c-7,0.3-13.4-2-20-3.7c0-2.5,1.4-3.6,3.8-3.8
		C174.1,179.8,179.6,182.4,185.6,183.1z"/>
	<path id="XMLID_1039_" class="st96" d="M185.6,183.1c-6.6,2.4-11.9-1.2-17.4-3.8c1.3-1.2,2.5-2.5,3.8-3.7c1.2,3.8,4.6,3.5,7.4,3.6
		C182.3,179.3,184.4,180.3,185.6,183.1z"/>
	<path id="XMLID_1038_" class="st97" d="M174.4,160.4c-0.4,1.7,0.9,3.7-0.9,5.2c-1.7-4.1-4-7.5-9-7.7c0-0.4,0-0.7,0.1-1.1
		c2.9,0.2,5-1.1,6.3-3.8c0.3-0.1,0.7-0.1,1-0.2C176.1,154.2,176.1,157,174.4,160.4z"/>
	<path id="XMLID_1037_" class="st98" d="M174.4,170.7c-0.4,0-0.7-0.1-1.1-0.1c0.1-1.3,0.2-2.6,0.2-3.9c3.4,0.1,7-0.4,9.6,2.7
		C180.4,170.7,177.4,170.7,174.4,170.7z"/>
	<path id="XMLID_1036_" class="st99" d="M310.5,297.8c10.8-8.9,23.1-15.9,32.3-26.7c1.8-2.1,2.7-0.5,3.9,0.5
		c-0.5,3.2-2.5,5.9-3.9,8.7c-9.1,5.6-16.4,13.6-25.9,18.7c-3.2,0.1-5.1,4.2-8.8,2.9C306.9,299.4,308.9,298.7,310.5,297.8z"/>
	<path id="XMLID_1035_" class="st100" d="M316.7,297.8c6.8-5,13.7-9.9,20.1-15.4c1.4-1.2,3.2-3.7,5.9-2.1c-0.7,2.4-0.3,5.4-3.4,6.6
		c-5.3,0.3-7.7,5.2-11.9,7.3c-5,2.5-8.5,7.5-14.4,8.6C312.1,299.6,315.1,299.3,316.7,297.8z"/>
	<path id="XMLID_1034_" class="st55" d="M145.7,304.1c-11.7,2.3-23.4,2.5-34.5-2.4c-8-3.6-10.1-12-4.8-19.8c6.7-9.8,15.1-18,25.6-24
		c2-0.1,1.9,1.2,1.7,2.6c-5.4,5.8-12.2,9.9-17.4,15.9c-2.6,3-5.1,6.1-6.5,9.8c-2.1,5.6-0.8,9.4,4.8,11.6c7.8,3.1,16.2,3.6,24.5,3.4
		C141.5,301.7,144.9,300,145.7,304.1z"/>
	<path id="XMLID_1033_" class="st101" d="M133.2,260.4c-0.4-0.8-0.8-1.7-1.2-2.5c0-0.8-0.1-1.6-0.1-2.3c0.2-0.5,0.5-1.1,0.7-1.6
		c12.4,8.6,27,9.7,41.2,12.7c2.8,0.6,5.7,0.6,8.1,2.5c-1.5,2.3-4.8,2-6.4,4.2c-0.6,0.1-1.2,0-1.8-0.1c-12.9-1.6-25-6.6-37.9-8.5
		C133.4,264.2,133.1,262.4,133.2,260.4z"/>
	<path id="XMLID_1032_" class="st55" d="M145.7,304.1c-2.2-2.4-5.1-0.8-7.7-1.4c0.4-2.9,2.8-2.7,4.8-2.8c12.6-0.7,24.9-3.6,37.3-6
		c2.2-0.4,4.4-1.3,6.6,0c1.2,1.3,1.1,2.6,0.1,4C173.1,299.6,159.8,304.4,145.7,304.1z"/>
	<path id="XMLID_1031_" class="st102" d="M186.8,297.9c-0.1-1.2-0.2-2.4-0.3-3.6c0.1-0.3,0.3-0.5,0.4-0.8c3-2.5,7-2.4,10.4-3.7
		c0.6-0.1,1.1-0.1,1.7-0.1c1.1,0.3,2.1,0.9,2.7,2c-1.1,3.8-4.8,2.4-7.2,3.6c-2.2,1.1-5.6,0.1-6.5,3.6
		C187.7,298.5,187.3,298.2,186.8,297.9z"/>
	<path id="XMLID_1018_" class="st103" d="M243.1,93.1c2.6-0.4,4.6,0.4,6.2,2.5c3.1,3.4,5.7,7.4,11.3,6.2c-1,2.4-3.5,3.2-5.1,4.9
		c-0.3,0.5-0.7,0.8-1.2,1c-2.6,0.8-5.3-0.3-7.8,0.8c-0.8,0.1-1.6-0.1-2.3-0.5c-0.5-0.3-0.8-0.7-1.1-1.1
		C248.4,102.3,244.5,97.7,243.1,93.1z"/>
	<path id="XMLID_1017_" class="st104" d="M266.8,115.4c3.8,2.9,8.6,2.5,12.8,4c3.2,1,6.7,1,9.8,2.3c0.9,3.6-2.5,4.2-4.1,5.9
		c-1.8,0.3-3.4-0.4-4.9-1.1c-2.2-1.3-4.6-2-7-2.5c-1.1-0.4-2.1-0.8-3.1-1.4c-1.5-0.8-3-1.6-4.2-2.9
		C265,118.1,264.6,116.6,266.8,115.4z"/>
	<path id="XMLID_1016_" class="st105" d="M289.2,121.9c-4,2.2-6.4-1.6-9.6-2.5c1.1-0.1,2.3-0.2,3.4-0.3c1.4-0.5,2.8-0.9,4.3-1
		c0.2,0,0.5,0.1,0.7,0.1c1.6,0,3.1-0.4,4.5-1.4c1.9,1.3,4.2,1.5,6.1,2.7c2.1,1.3,3.3,3,2.3,5.6c-0.4,0.5-0.9,0.9-1.6,1
		C295.7,125.5,292.5,123.7,289.2,121.9z"/>
	<path id="XMLID_1015_" class="st106" d="M254.3,106.9c0.4,0,0.8-0.1,1.2-0.2c4.4,1.5,10,1.2,10.8,7.6c-0.7,0.9-1.4,1.7-2.5,2
		c-0.8,0.2-1.7,0.2-2.5,0c-2.9-1.3-5.3-3.3-7.5-5.5c-0.3-0.5-0.4-1.1-0.5-1.7C253.3,108.3,253.6,107.5,254.3,106.9z"/>
	<path id="XMLID_1014_" class="st107" d="M300.5,125.6c0-2.7-1-4.7-3.9-5.3c-1.9-0.4-3.4-1.4-3.9-3.3c4.4,0,8.7-0.3,12.5-2.6
		c0.6,0.3,1,0.8,1.1,1.5c-0.5,3.7,0.1,7.9-3.9,10.2C301.6,126.2,301,126,300.5,125.6z"/>
	<path id="XMLID_1013_" class="st108" d="M264.2,115.5c0.7-0.4,1.4-0.7,2.1-1.1c0.2,0.3,0.4,0.7,0.5,1c-0.9,1.3-0.9,2.5,0.2,3.7
		c0.7,5.2-2,9.5-3.8,14c-0.7,1.6-1.9,3.3-4.3,2.3C259,128.3,260.3,121.6,264.2,115.5z"/>
	<path id="XMLID_1012_" class="st109" d="M305.5,115.5c-0.1-0.4-0.2-0.8-0.4-1.1c0-0.7,0-1.5,0.1-2.2c-0.2-1.2,0.2-2,1.6-1.7
		c1.6,1.7,3.3,3.4,4.9,5.1c0.5,2-1,2.1-2.3,2.4C307.6,118,306.2,117.3,305.5,115.5z"/>
	<path id="XMLID_1011_" class="st110" d="M306.9,110.4c-0.5,0.6-1.1,1.1-1.6,1.7c-2.5,1-3.3-1.3-3-2.4c1-3.1,2.9,0.3,4.4-0.2
		C306.7,109.8,306.8,110.1,306.9,110.4z"/>
	<path id="XMLID_1010_" class="st111" d="M285.5,116.8c-0.1-0.7-1-1.9,0-2c2.2-0.1,2.3,1.9,2.6,3.5c0,0-0.1-0.1-0.1-0.1
		C286.6,118.9,286.1,117.7,285.5,116.8z"/>
	<path id="XMLID_1009_" class="st112" d="M285.5,116.8c0.9,0.4,1.7,0.9,2.6,1.3c-1.3,2-3.3,1-5,1
		C283.9,118.4,284.7,117.6,285.5,116.8z"/>
	<path id="XMLID_1008_" class="st113" d="M174.4,160.4c-0.1-2.8-0.6-5.4-2.6-7.5c0-0.4,0.1-0.7,0.2-1.1c3.4-5,6.9-2.3,10.3,0
		c0.4,0.9,0.4,1.8-0.1,2.7c-2.6,1.7-6,2.4-7,6C175,160.4,174.7,160.4,174.4,160.4z"/>
	<path id="XMLID_1007_" class="st114" d="M181.9,151.8c-3.3,0.2-6.6-3-9.9,0c0.3-1.7,0.7-3.4,1-5c0,0,0.3,0.1,0.3,0.1
		c2.8-3.9,5.2,1.4,7.9,0.4c1.2,0.1,2.2,0.6,2.6,1.9C183.8,150.4,183.2,151.3,181.9,151.8z"/>
	<path id="XMLID_1006_" class="st2" d="M263,261.7c0.1,0.4,0.2,0.8,0.3,1.2c-1.5,1.7-3.6,1.9-5.7,1.9c-21.3,0-42.5,0.1-63.8,0
		c-1,0-2-0.2-3-0.5c-1.2-0.5-2-1.4-2.6-2.5c0-0.8,0.1-1.5,0.1-2.3c1.2-4.2,4.4-5.7,8.3-6.6c0.9-0.1,1.8-0.2,2.7-0.2
		c0.9,0,1.8,0,2.7,0.1c6.5,3.8,8.7-2.7,12.6-5.2c8-3.6,16.2-4.5,24.6-1.4c1.9,0.9,3.2,2.3,3.9,4.2c0,0.4,0.1,0.8,0.2,1.1
		c0.3,1.3,1.1,2.1,2.4,2.4c2.5,1.1,2.8,4.9,6.2,5.1c2.1,1,4.2,1.2,6.2-0.1c0.4-1.3,1.4-1.3,2.4-1.4
		C260.5,259.4,261.2,260.9,263,261.7z"/>
	<path id="XMLID_1005_" class="st115" d="M196.9,253.9c-3.7,0.5-6.3,2.8-8.6,5.5c-10.6-3.8-21.9-4.9-32.8-7.7
		c-5.8-1.5-11.2-3.6-16.7-6.1c1.2-2.1,3.6-0.9,4.4-2.7c0.4-0.4,0.8-0.8,1.3-1.2c15.5,4.2,30.7,10.3,47.4,7.8
		c1.4-0.1,2.6,0.2,3.7,1.1C196.5,251.4,197.3,252.4,196.9,253.9z"/>
	<path id="XMLID_1004_" class="st116" d="M188.2,261.6c0.4,0.4,0.8,0.8,1.2,1.2c0.9,1,1.3,2.1,0.9,3.4c-0.4,0.9-0.8,1.7-2,1.3
		c-0.1-1.7-0.2-3.4-0.4-5.1C187.8,262.2,187.9,261.9,188.2,261.6z"/>
	<path id="XMLID_1003_" class="st117" d="M175.7,272.9c1.1-2.9,4.2-2.3,6.2-3.7c0.1,0.5,0.1,0.9,0.2,1.4c-1.1,2.2-5.2,0.9-5.2,4.4
		c-0.3,0.6-0.8,0.8-1.4,0.4C174.9,274.5,174.9,273.6,175.7,272.9z"/>
	<path id="XMLID_1002_" class="st118" d="M189.4,134.3c0.8-0.8,1.7-1.7,2.5-2.5c3.7-1.4,7.9,1,11.5-1.4c0.5-0.3,1-0.6,1.5-0.8
		c6.3-1.6,10.5-6,14.2-10.9c1-1.3,1.4-3,3.1-3.6c2.1-0.2,3.6,0.7,4.2,2.8c-3.3,10.9-11,17.2-21.6,20c-4.6,1.2-9.4,1.6-14.2,0.5
		C189.4,137.3,188.6,136.1,189.4,134.3z"/>
	<path id="XMLID_1001_" class="st119" d="M189.4,134.3c0.4,1.2,0.9,2.5,1.3,3.7c0.6,1.8-0.7,2.6-1.7,3.6c-1.1,1-2.2,2-3.7,2.1
		c-3-0.8-5.9,0.6-8.9-0.1c-0.9-0.5-1.4-1.2-1.4-2.3c0.2-1.9-0.6-4,0.6-5.8l0-0.1c1.2-0.9,1.1-2.3,1.4-3.5c0.6-1.9-1-3.5-0.5-5.4
		c1.1-1.5,1.8-3.5,3.8-4.2c0.6,0,1.1,0.2,1.5,0.6C183.4,127.4,185.8,131.3,189.4,134.3z"/>
	<path id="XMLID_1000_" class="st120" d="M193.2,129.4c-6.2-1.7-5.3-6.8-4.9-11.1c0.3-4.6,4-6.8,8.1-7.4c4.2-0.6,9-1.1,10.5,4.8
		c-0.5,1.3-1.4,1.8-2.7,1.8c-1,0-2-0.3-3-0.2c-6.3,0.1-7.4,2-4.2,7.7c0.3,0.5,0.5,1.1,0.5,1.7c-0.2,1.2-0.7,2.3-1.7,3.1
		C194.8,130.1,194,130.1,193.2,129.4z"/>
	<path id="XMLID_999_" class="st121" d="M196.8,126.8c0-0.4-0.1-0.8-0.1-1.2c0.3-3.4,3.4-3.5,5.4-4.9c2.5-1,5-2.1,7.1-3.8
		c1.2-0.8,2.5-1.7,3.7-2.5c0.8,0,1.7,0,2.5,0c0.8,0.8,1.1,1.8,0.9,2.8C214.9,123.9,203.5,129.5,196.8,126.8z"/>
	<path id="XMLID_998_" class="st122" d="M193.2,129.4c0.8,0,1.6-0.1,2.4-0.1c3.1-0.9,6.1-0.9,8.8,1.3c-3.7,5-8.2,2.1-12.4,1.3
		C192.4,131,192.8,130.2,193.2,129.4z"/>
	<path id="XMLID_997_" class="st123" d="M209.4,116.8c-0.1,4.2-4.1,3.4-6.2,5c-3.3-2.6-2.3-4.1,1.3-5c0.8-0.4,1.6-0.9,2.5-1.3
		C207.7,116,208.5,116.4,209.4,116.8z"/>
	<path id="XMLID_996_" class="st124" d="M181.9,123c-0.4,0-0.9,0-1.3,0c-1.1-0.5-2.5-0.7-3.3-1.8c-0.1-0.2-0.3-0.4-0.4-0.7
		c1.3-1.2,2.5-2.5,3.8-3.7C185.1,118.1,182.6,120.8,181.9,123z"/>
	<path id="XMLID_995_" class="st125" d="M193.2,250.4c-8.3,2-16.6,2.6-24.7-0.5c-7.1-2.7-14.9-2.3-21.8-5.7
		c-1.2-0.6-2.1-1.1-2.3-2.5c3.2,0.2,6.3-0.2,8.7-2.6c3.2-0.8,6.1,0.5,9,1.5c9.9,3.3,20.1,4.8,30.4,5.2
		C195.8,246.9,194.8,248.6,193.2,250.4z"/>
	<path id="XMLID_994_" class="st126" d="M193.2,246.6c-5.2,2.5-10.5,0-15.5-0.6c-8.4-1-16.7-3.5-24.5-7c0.7-2.5,3.5-4.3,2.5-7.4
		c0.6-0.4,1.2-0.4,1.8,0c5.6,4.5,12.2,6.6,19.2,6.9c4.5,0.2,9,0.5,13.4,1.6c1.3,0.3,2.4,1,3.3,2c0.6,0.8,0.8,1.7,0.7,2.7
		C194,245.6,193.7,246.2,193.2,246.6z"/>
	<path id="XMLID_993_" class="st127" d="M156.9,231.7c-0.4,0-0.9,0-1.3,0c-2-1.9-6.8-0.2-6.3-5.1c0.4-0.4,0.8-0.8,1.2-1.2
		c1.9-2.6,4.4-1.8,6.7-0.9c8.5,3.2,17.4,4.2,26.4,4.6c1.4,0.3,2.6,0.8,3.6,1.7c1.7,1.7,3,3.6,2.9,6.1c-0.1,0.7-0.5,1.2-1,1.5
		C177.9,238.3,167.7,233.8,156.9,231.7z"/>
	<path id="XMLID_992_" class="st128" d="M175.6,142c0.4,0.4,0.8,0.8,1.2,1.1c1.5,1.1,2.7,0,4-0.3c2.7-0.7,3.5,0.4,2.5,3
		c-0.7,0.9-1.9,1.4-2.6,2.3c-1.3,1.8-2.4,0.8-3.3-0.3c-1.2-1.2-2.3-2.2-4-1c-0.1-1.2-0.2-2.4-0.2-3.6c0.5-0.5,1-0.9,1.4-1.4
		C175,141.2,175.3,141.3,175.6,142z"/>
	<path id="XMLID_991_" class="st129" d="M331.2,152c0.7,1.1,1.3,2.3,2,3.4c2.6,2.3,1.6,5.1,0.9,7.8c-0.2,0.6-0.6,1.1-1.1,1.5
		c-2.8,1-4.7-0.6-6.8-2c-2.7-2.5-6.8-4.5-4-9.4c0.8-0.9,2-0.9,3.1-0.9c1.3-0.3,2.6-0.6,3.9-0.7C329.9,151.8,330.6,151.9,331.2,152z"
		/>
	<path id="XMLID_990_" class="st130" d="M329.3,151.6c-0.8,1.5-2.5,1.9-3.8,2.6c-1.4-0.8,0-3.6-2.6-3.5c-0.9-0.5-1.6-1.2-2.4-1.7
		c-1.3-0.9-3.1-1-3.7-2.7c1.7-1.9,4.9-0.4,6.5-2.7C326.7,145.3,327.2,149,329.3,151.6z"/>
	<path id="XMLID_989_" class="st131" d="M324.1,130.7c-2.3-1.2-3.5,3.4-5.9,1.2c-0.4-0.4-0.3-1.6,0-2.3c1.2-3.2,4.1-1.7,6.3-2.3
		c0.2,0,0.4,0.1,0.6,0.2C324.8,128.6,324.4,129.7,324.1,130.7z"/>
	<path id="XMLID_988_" class="st132" d="M323,140.5c-1.2-0.4-1.2-1.5-1.2-2.5c2,0,4.3-1.7,5.7,1.2
		C326.4,141.5,323.9,138.1,323,140.5z"/>
	<path id="XMLID_984_" class="st133" d="M184.6,230.4c-9.5,0.5-18.7-1-27.6-4.3c-2.1-0.8-4.2-1.8-6.5-0.7c0-0.4,0-0.8,0-1.2
		c-0.4-1.2-0.7-2.4-1.1-3.7c-0.4-0.3-0.6-0.6-0.4-0.9c0.1-0.3,0.3-0.4,0.4-0.4c4-0.4,7.7,0.8,11.3,2.5c7.4,3.5,15.4,3.5,23.3,3.2
		c0.5,0.3,1,0.7,1.2,1.3C185.7,227.7,185.8,229.1,184.6,230.4z"/>
	<path id="XMLID_983_" class="st134" d="M149.4,219.2c0,0.4,0,0.9,0,1.3c-2.2-0.5-4.5-0.4-6.1-2.4c-2.9-3.7-7-2.4-10.9-2.4
		c-5.7,0.4-6.8-3.2-6.7-7.7c1.7-0.1,3.5,0,4.6,1.2C135.6,214.6,143.8,214.6,149.4,219.2z"/>
	<path id="XMLID_982_" class="st135" d="M316.7,146.5c1.9,0,3.7,0.2,5,1.8c2.1,4.1-0.3,7.8-1.6,11.2c-2.3,6.2-5.4,12.2-9.9,17.1
		c-0.4,0.7-0.9,1.4-1.4,2.1c-2,2.6-3.6,5.3-4.5,8.5c-8.1,7.9-14.8,17.2-24.2,23.7c-4.3,3-8.3,6.8-13.9,7.5c-1.8-1.2-1-3.1-1.1-4.7
		c0.7-3.3,2.2-6.1,5.5-7.5c0.8-1.3,1.7,2.9,2.8-0.2c1.4-4-2.6-1.1-3-2.7c-1.3-0.9-2-2.1-2-3.7c0.1-1.8,1.5-3.1,2.2-4.6
		c1-1.7,2.1-3.4,4.3-3.8c0.6,0,1,0.3,1.3,0.8c0.9,1.1,0.3,3,2,3.7c2.6-0.4,5.3-0.4,7.1-2.7c10.4-10.2,18-22.4,24.9-35.1
		c1.8-3.4,1.6-7.8,5.2-10.2C315.8,147.4,316.3,146.9,316.7,146.5z"/>
	<path id="XMLID_981_" class="st136" d="M315.4,147.8c-6.2,18.1-15.7,34-30.3,46.6c-2.3,1.1-3.4-0.5-4.5-2.1
		c-1.6-3.5,0.9-5.5,2.9-7.5c8.5-8.7,14.6-19.1,20.3-29.7c1-1.9,1.4-3.9,1.2-6c-0.1-1.1-0.4-2.3-0.4-3.4c0.1-0.6,0.3-1.1,0.6-1.5
		c2.1-0.5,3.6-1.8,4.8-3.6c0.5-0.3,1-0.2,1.5,0.1C312.9,143,314.1,145.4,315.4,147.8z"/>
	<path id="XMLID_980_" class="st137" d="M311.6,140.6c-0.4,0-0.7,0.1-1,0.2c-1.2,0-2.2-0.4-3.1-1.2c-2.2-2.8-4.6-5.4-6.2-8.6
		c-0.1-1.8-0.8-3.5,0.2-5.3c3.8-2.4,1.8-7.1,4-10.2c1.3,0.4,2.6,0.9,3.8,1.3c1.3,1.3,3.9,0,4.8,2.3c5.5,3.7,0.3,8.9,1.5,13.3
		C315.9,133.5,313.8,138.2,311.6,140.6z"/>
	<path id="XMLID_979_" class="st138" d="M314.1,119.1c-1.6-0.8-3.2-1.6-4.8-2.3c1,0,1.9-0.3,2.4-1.3c0.4,0,0.8,0,1.1,0.1
		C313.6,116.7,314.6,117.6,314.1,119.1z"/>
	<path id="XMLID_978_" class="st139" d="M204.4,130.6c-3-0.1-6.1,0.5-8.8-1.3c0.4-0.8,0.8-1.6,1.3-2.5c9.9-0.1,17.2-5.1,18.8-12.5
		c0.4-0.4,0.8-0.8,1.3-1.2c1,0,2,0.2,2.5,1.2c0.4,0.5,0.7,1,0.9,1.6C217.8,123.9,211.4,127.5,204.4,130.6L204.4,130.6z"/>
	<path id="XMLID_977_" class="st140" d="M219.3,115.6c0-0.4,0-0.9,0-1.3c2.1,0,4.1,0,6.2,0c1.3,0.1,2.5,0,3.8,0.4
		c1.2,0.7,1.8,1.6,0.9,2.8c-1.3,1.7-2.9,1.9-4.6,0.5c-0.7-1.6-2-2.5-3.7-2.4C221,116.3,220.2,116.3,219.3,115.6z"/>
	<path id="XMLID_976_" class="st141" d="M228.1,115.6c-1.1,0-2-0.2-2.5-1.2c0.4-0.4,0.9-0.8,1.3-1.3c0.8,0,1.6-0.1,2.4-0.1
		C230.1,114.4,228.9,114.9,228.1,115.6z"/>
	<path id="XMLID_974_" class="st142" d="M234.3,109.2c0.8-1.6,1.7-3.2,2.5-4.9c0,1.7,0.9,2.5,2.6,2.5c0.3,0.3,0.4,0.6,0.3,1
		c-0.1,0.4-0.1,0.5-0.2,0.5c-1,1.1-2.3,1.6-3.8,1.7C235.1,109.9,234.7,109.7,234.3,109.2z"/>
	<path id="XMLID_973_" class="st143" d="M239.1,108c0.1-0.4,0.1-0.7,0.2-1.1c1.2,0,2.5,0,3.7,0c0.5,0.1,0.9,0.2,1.4,0.3
		c0.8,1.3,0.4,2.1-0.9,2.8c-1.2,0.3-2.3-0.1-3.3-0.7C239.8,108.9,239.4,108.5,239.1,108z"/>
	<path id="XMLID_972_" class="st143" d="M234.3,109.2c0.4,0.1,0.9,0.1,1.3,0.2c1.2,8.7-4,14.9-8.6,21.1
		c-6.8,9.2-16.7,13.6-27.7,15.1c-4.3,0.6-9.4,1.4-11.1-4.8c0.8-0.9,1.7-1.8,2.5-2.8c3.2-2.7,7-0.4,10.5-0.9
		c12.1-1.8,19.2-8.9,24.4-19.1c1.5,0,3.3,0.5,4-1.3c0.3-0.8-0.8-1-1.5-1.1c0.4-0.9,0.8-1.7,1.2-2.6c0.9-0.8,1.7-1.6,2.6-2.4
		C232.7,110.1,233.5,109.7,234.3,109.2z"/>
	<path id="XMLID_971_" class="st124" d="M168.2,124.3c1.3-1.3,2.5-2.5,3.8-3.8c1.6,0,3.3,0.1,4.9,0.1c0,0,0,0,0,0
		c0.5,1.9-0.8,2.7-2.1,3.5c-1.1,0.5-2.2,0.9-3.4,1.2C170.2,125.4,169.1,125.4,168.2,124.3z"/>
	<path id="XMLID_970_" class="st144" d="M170.7,131.7c-0.8,0.1-1.6,0.2-2.4,0.3c-0.7-1.8-2.8-2.9-2.6-5.1c0.4-0.4,0.8-0.8,1.3-1.3
		c3.1-1.2,4.9,0.6,6.1,3C174.2,130.8,172,131,170.7,131.7z"/>
	<path id="XMLID_969_" class="st145" d="M170.7,131.7c3.6-5-1.3-4.8-3.8-6.1c0.4-0.4,0.8-0.9,1.3-1.3c1.2,0,2.5,0,3.7,0
		c3.7,1.1,5,4.3,6.2,7.5c-0.1,1.7,0.2,3.7-2.5,3.7C175.2,132.6,172.9,132.2,170.7,131.7z"/>
	<path id="XMLID_966_" class="st146" d="M175.8,275.6c0.3-0.2,0.7-0.4,1-0.6c0,3.3,0.3,4.5,4.8,4.4c23.9-0.6,47.8-0.3,71.7-0.4
		c2.2,0,3.4,1.2,4.7,2.5c0.1,1.2,0.1,2.4,0.2,3.6c-1.2,0.5-2.3,1.1-3.5,1.6c-14.6,1.1-29.2-0.1-43.8,0.4c-3.8,0.1-7.9-1.1-11.4,1.4
		c-1.1,0.9-2.4,1.1-3.7,0.5c-2.4-1.7-4.7,0.1-7,0.2c-2.3,0.1-4.4-0.4-6.3-1.7c-1.9-2-4.8-1.5-6.9-3c1.1-4.3-3.7-0.2-3.9-2.7
		C171.9,279,174.2,277.5,175.8,275.6z"/>
	<path id="XMLID_965_" class="st147" d="M189.4,266.6c0-1.2,0-2.5,0-3.7c24.6,0,49.2,0,73.8-0.1c0.7,0.5,1.3,0.9,2,1.4
		c0.2,0.7,0.3,1.4,0.5,2.1c-0.3,1.4,0.1,3.1-1.4,4c-2.1-2.5-4.9-1.9-7.5-1.9c-19.7,0-39.4,0-59.1,0
		C194.8,268.5,191.7,269,189.4,266.6z"/>
	<path id="XMLID_964_" class="st18" d="M189.4,266.6c22.9,0,45.9,0,68.8,0c2.6,0,6.3-1.2,6.1,3.7c-23.1,0-46.1,0-69.2,0
		c-2.5,0-5.6,1-6.8-2.7C188.7,267.3,189,267,189.4,266.6z"/>
	<path id="XMLID_963_" class="st148" d="M301.8,266.6c-3.3-0.5-1.6-3.4-2.6-5.1c0.8-0.4,1.7-0.8,2.5-1.2
		C301.7,262.4,301.7,264.5,301.8,266.6z"/>
	<path id="XMLID_962_" class="st149" d="M295.5,297.8c-8.9,2.4-17.2,6.2-24.9,11.2c-0.2-3.4,1.6-5,4.7-6.3
		c10.2-4,19.8-9.1,29.2-14.8c6.1-3.7,10.8-10.1,18.5-11.3c1.2-0.8,2.3-1.7,3.7-2.2c0.4,0,0.9-0.1,1.3-0.1c0.4,0.9,0.8,1.8-0.5,2.6
		C316.8,283.8,306.2,290.8,295.5,297.8z"/>
	<path id="XMLID_961_" class="st150" d="M323,270.2c-2.3,0.8-4.3,0.5-6.3-1C319.1,267.8,321.3,267.4,323,270.2z"/>
	<path id="XMLID_960_" class="st54" d="M326.6,274.4c-0.8,1.5-2,2.2-3.7,2.2c0-0.4,0-0.8,0-1.3c1.4-0.9,1.2-2.4,1.2-3.7
		C325,272.6,325.8,273.5,326.6,274.4z"/>
	<path id="XMLID_959_" class="st151" d="M239.1,247.8c-8.4-2.9-16.7-2.4-24.8,1.2c-4.8,0.1-9.3,1.3-13.6,3.3c-1.4-0.1-2.4-0.8-3-2.1
		c0-0.3-0.1-0.7-0.1-1c0.1-0.3,0.2-0.6,0.3-1c1-2.2,2.9-3,5-3.1c17.8-1.2,34.7-6.1,50.9-13.3c3.4-1.5,5.2-0.8,5.2,3.2
		c-0.1,1.8-0.9,3.1-2.3,4.1c-2.4,3-3.9,5.9,0.2,8.8c0.3,0.9,0.2,2.1,1.4,2.5c0.3,1.6-0.8,3.6-1.8,3.2c-2.4-0.9-4.3-2.8-4.9-5.6
		C247.4,248.5,243.2,247.6,239.1,247.8z"/>
	<path id="XMLID_958_" class="st152" d="M239.1,247.8c4.2-2.3,8.3-2.2,12.5,0.2c-2.1,3.4-5.6,1.9-8.5,2.5
		C241.7,249.6,240.4,248.7,239.1,247.8z"/>
	<path id="XMLID_957_" class="st153" d="M258,259c-2,2.1-4.1,2-6.2,0.1C253.9,259.1,255.9,259,258,259z"/>
	<path id="XMLID_956_" class="st154" d="M245.6,254c-2.3,0.7-3.1-0.1-2.4-2.4C244,252.4,244.8,253.2,245.6,254z"/>
	<path id="XMLID_955_" class="st155" d="M256.6,239.1c0.5-1.2,1.1-2.4,1.6-3.6c0.3-1.2,1.1-2.1,1.9-2.9c2.4-3.2,6.4-3.7,9.5-5.6
		c11.7-6.9,22-15.5,31.2-25.5c2.3-2.5,4.8-4.5,8.2-5.3c1,0.1,1.7,0.5,1.4,1.7c1.2,1.8,0.1,2.9-1.1,4.2c-13.6,14.6-28.8,27-46.9,35.7
		C260.5,238.9,258.7,239.2,256.6,239.1z"/>
	<path id="XMLID_954_" class="st156" d="M310.5,198c-0.4-0.4-0.8-0.8-1.3-1.2c-3-2.3-2.9-3,0.7-6.8c4-2.3,8.5-1,12.8-1.8
		c2.6-0.5,5.5,0,7.6-2.2c0.5-0.4,1-0.8,1.5-1c1.3-0.1,2.6-0.2,2.4,1.8c1.8,2.1,7.5,0.8,5.9,5.5c-1.4,4-4.2,7.8-9.6,7
		c-3,3.3-6.7,0.2-10,1.2C316.8,201,314.3,196.8,310.5,198z"/>
	<path id="XMLID_953_" class="st99" d="M286.8,312.8c1.2-1.2,2.5-2.5,3.7-3.7c0.8-0.4,1.7-0.8,2.5-1.2c2.6-2.3,6.1-2.8,8.7-5
		c1.2-0.8,2.4-0.9,3.7-0.3c0.6,1.1,0.1,2.1-0.7,2.7C299.3,309.1,294,313.4,286.8,312.8z"/>
	<path id="XMLID_952_" class="st157" d="M305.5,302.8c-1.2,0-2.5,0-3.7,0c3.1-1.3,4.1-6.4,8.7-5c-0.8,1.2-1.7,2.5-2.5,3.7
		C307.5,302.7,306.8,303.5,305.5,302.8z"/>
	<path id="XMLID_951_" class="st157" d="M301.7,302.8c-2.1,3.1-5.4,4.1-8.7,5C294.7,304.1,298.4,303.7,301.7,302.8z"/>
	<path id="XMLID_950_" class="st158" d="M352.9,200.5c5.6-4.4,5.2-12.2,9.8-17.2c0.8-0.9,1.6-1.8,2.4-2.7c0.4,1.7,0.9,3.3,1.3,5
		c-0.6,3.1,0.2,6.2-0.4,9.2c-3,4.4-4.6,9.9-10.3,11.9c-0.4-0.4-0.8-0.9-1.2-1.3C354,203.7,353.4,202.1,352.9,200.5z"/>
	<path id="XMLID_949_" class="st159" d="M365.5,195.4c0.5-3.3-1.2-6.8,0.9-9.9c0.4,2.1,0.9,4.2,1.3,6.3c-1.6,1.4-0.7,3.4-1.3,5.1
		C365.6,196.8,364.8,196.6,365.5,195.4z"/>
	<path id="XMLID_948_" class="st160" d="M334.2,186.7c-0.6-0.4-1.3-0.8-1.9-1.2c-1.7-1.9,1-2.3,1.2-3.6c0.2-1.1-0.5-1.7-1.4-2.1
		c-2.2-0.9-5.6-0.5-4.3-4.6c4.1-1.5,8.4-2.5,10.2-7.3c1.2,1.7,2.4,3.4,3.6,5.1c0.4,1.7,0.8,3.3,1.3,5
		C340.9,182,340.3,187,334.2,186.7z"/>
	<path id="XMLID_947_" class="st161" d="M365.5,195.4c0.3,0.5,0.6,1,0.9,1.5c-0.3,3.3-0.6,6.6-1,9.8c-0.2,2.3-1.3,3.9-3.8,4
		c-1.5-2.1-5.7-0.2-6-4.1C359.6,203.5,360.6,197.8,365.5,195.4z"/>
	<path id="XMLID_946_" class="st162" d="M337.9,168c0.6,7.9-4.7,7.7-10.1,7.6c-1.4,0.4-2.2-0.3-2.9-1.4c-0.1-0.6-0.1-1.2,0-1.7
		c3.9-1.7,3.7-7.1,7.9-8.4c0-0.3,0-0.7,0.2-0.9c0.7-0.7,1.3-0.8,2,0C336,164.7,337,166.3,337.9,168z"/>
	<path id="XMLID_945_" class="st163" d="M335.1,163.1c-0.7,0-1.3,0-2,0c1.3-2.5,1-5.1,0.1-7.6c0.8-0.8,1.5-1.6,2.3-2.3
		C335.2,156.4,336.4,159.8,335.1,163.1z"/>
	<path id="XMLID_944_" class="st164" d="M198,289.3c0.2-2.4,1.4-3.9,3.9-3.9c16.6,0,33.2,0.1,49.8,0.2c1,0,1.9,0.8,2.9,1.2
		c-4.5,4.5-10,3.6-15.5,3.2c-1.7-0.1-3.5-1.7-5,0.3c-6.6-0.9-13.2-1.1-19.8,0.1l0,0c-5-1.1-10-0.5-15,0c-0.4,0-0.8,0-1.2-0.1
		l-0.5-0.4L198,289.3z"/>
	<path id="XMLID_943_" class="st19" d="M214.4,290.4c6.6-3.3,13.2-4.6,19.8-0.1c-5.1,6.2-9,6.8-16,2.5
		C217.3,291.3,216.1,290.4,214.4,290.4z"/>
	<path id="XMLID_942_" class="st165" d="M242.6,303.2c-1.1-0.9-2-1.7-1.4-3.3C242.9,300.5,243.3,301.6,242.6,303.2z"/>
	<path id="XMLID_931_" class="st80" d="M289.2,289.1c0.9-2.3,2.9-2.6,5-2.5C293,288.2,291.2,288.9,289.2,289.1z"/>
	<path id="XMLID_930_" class="st166" d="M305.5,302.8c0.8-0.4,1.7-0.8,2.5-1.2c3.5,0,4.9-4.7,8.7-3.7c-1.2,1.7-2.5,3.3-3.7,5
		c-5.4,3.3-10.7,6.8-16.2,9.9c-3,1.7-6.4,2.9-10.1,2.6c0-0.8,0-1.6,0-2.5C293.4,310.3,300.2,307.9,305.5,302.8z"/>
	<path id="XMLID_929_" class="st167" d="M329.2,296.6c-0.9,2.3-3.2,2.7-5,3.7C324.6,297.4,326.9,297,329.2,296.6z"/>
	<path id="XMLID_928_" class="st19" d="M199.4,290.3c5-3,10-4,15,0c-3.9,3.2-8.2,2.5-12.6,1.3C201,291.2,200.2,290.8,199.4,290.3z"
		/>
	<path id="XMLID_927_" class="st168" d="M175.6,142c-0.4-0.1-0.7-0.2-1.1-0.2c-0.1-2-0.2-4-0.4-6.1c0.5,0,1-0.1,1.5-0.1
		C175.6,137.7,175.6,139.8,175.6,142z"/>
	<path id="XMLID_926_" class="st169" d="M184.6,225c0,0-0.6-0.1-0.6-0.1c-0.3-1.1-0.6-2.1-0.9-3.2c0.1-1.6,0.2-3.3,0.3-4.9
		c0.3,0,0.7-0.1,1-0.1c15.2,1.7,30.2,1.7,44.5-5.1c1.5-0.7,3.2-1,4.8-1.2c1.3-0.2,2.6-0.1,3.9,0.3c1.5,0.6,2.9,1.3,3.4,3
		c-0.1,0.6-0.3,1.2-0.5,1.7c-1.2,2-0.2,4.9-2.5,6.5c-3.5-1.6-6.8-0.9-10.2,0.4c-8.2,3.2-16.6,4.6-25.5,2.5c-3.6-0.8-7.2,1.4-11,1
		C189,225.7,186.6,226.6,184.6,225z"/>
	<path id="XMLID_925_" class="st170" d="M234.4,211.7c-7.6,2.3-14.8,6-22.8,7c-8.3,1.1-16.6,0.3-24.8,0.4c-1.5,0-2.1-1.1-2.3-2.4
		c0.5-1.9,1-3.9,1.4-5.8c0.4-0.2,0.7-0.3,1-0.5c13.6,1.2,27.3,3,40.4-3c2.7-1.2,5.7-1.4,8.2,0.9
		C236.5,209.8,235.7,210.8,234.4,211.7z"/>
	<path id="XMLID_924_" class="st171" d="M235.4,209.2c-3-1.8-5.8-1.4-8.8,0.1c-12,6.2-25,3.1-37.5,3.5c-1.5,0.1-2-1.2-2.2-2.5
		c0-0.8,0.1-1.5,0.1-2.3c0.3-0.1,0.6-0.2,0.8-0.2c1.9-1.4,4.2-1.7,6.5-1.6c10.1,0.3,20.1-0.6,29.8-3.7c6.6-0.9,12.1-5.2,18.6-6.2
		c2,0.6,3.3,1.9,3.6,4c-0.8,4.8-4.9,6.5-8.5,8.8C237,209.5,236.2,209.9,235.4,209.2z"/>
	<path id="XMLID_923_" class="st172" d="M175.3,160.4c-0.2-4.7,2-6.8,6.7-6.1c0.9-1.7,2.1-1.6,3.6-0.8c3.9,2.2,8.2,2.2,12.5,1.7
		c1.9-0.2,2.5,1.9,4,2.4c1.5,0.7,3.3,1.1,3.5,3.2c-0.2,1.1-0.8,2.2-1.9,2.1c-7.9-0.7-16.5,2.8-23.6-3.3
		C178.1,158,176.8,159.7,175.3,160.4z"/>
	<path id="XMLID_922_" class="st173" d="M186.9,176.8c-0.4-0.4-0.7-0.9-1.1-1.3c-1.6-1.3-2.3-2.8-1.6-4.9c1-0.7,2.1-2.2,2.9-2
		c6.3,1.7,12.4,0.4,18.6-0.5c0.1,2.4,0.1,2.4,3.8,2.5c0.9-0.5,1.9-0.9,2.8-1.4c2.5-1,4.8-0.4,7,1c0.4,0.6,0.4,1.2,0,1.8
		c-6.1,3.6-12.9,3.5-19.5,4c-3.6,0.2-7.4-0.3-10.9,1.1C188.1,177.3,187.5,177.2,186.9,176.8z"/>
	<path id="XMLID_921_" class="st174" d="M205.6,160.8c-1.4-1.2-3.1-1.6-5-1.6c-1.5-2.6,0.5-3.3,2.3-3.7c2.5-0.5,4.5-1.7,6.7-2.8
		c1-0.2,1.7,0.2,2.3,0.9c0.3,0.5,0.5,1,0.5,1.5c-0.1,1.1-0.8,2.3,0.4,3.3c0.9,0.9,1.6,1.9,1.9,3.2c0.2,1.4-0.1,2.6-0.6,3.9
		c-0.4,0.7-0.9,1.3-1.9,1.1C211.1,163.4,208.3,162.2,205.6,160.8z"/>
	<path id="XMLID_920_" class="st175" d="M184.2,170.6c0.7,1.6,2,2.9,1.6,4.9c-4.2-0.7-9.9,2.2-11.4-4.8c2.6-2.4,5.8-1.3,8.8-1.4
		C183.5,169.7,183.8,170.1,184.2,170.6z"/>
	<path id="XMLID_919_" class="st176" d="M212.2,166.6c0.3-0.4,0.7-0.9,1-1.3c0.5-0.3,1-0.4,1.5-0.4c1.6,0.1,3.3-0.6,4.8,0.5
		c0.5,0.7,0.6,1.5,0.5,2.4c-0.2,1.2-1.2,1.9-1.9,2.7c-2-0.4-4-0.8-5.9-1.3C212.2,168.3,212.2,167.4,212.2,166.6z"/>
	<path id="XMLID_918_" class="st103" d="M209.4,170.5c-1.4,1.7-3.5,1.9-4.9,0.8c-1.4-1.1,0.1-2.4,1.1-3.3
		C206.9,168.8,208.1,169.7,209.4,170.5z"/>
	<path id="XMLID_917_" class="st177" d="M186.9,200.5c0-1.2,0.1-2.5,0.1-3.7c0.5-0.4,1.1-0.8,1.7-1.1c0.6-0.2,1.3-0.4,1.9-0.4
		c13.2,1.5,25.3-3.1,37.6-6.6c1,0,1.9,0.3,2.8,0.7c2.1,1.3,4.9,1.5,6.2,4c-3.3,5.3-9.2,5.9-14.2,8.2c-9.5,2.5-19.3,1.1-28.9,2.7
		c-1.9,0.3-3.1-1-4.7-1.2C188.5,202.1,187.7,201.3,186.9,200.5z"/>
	<path id="XMLID_916_" class="st178" d="M189.4,203c0.9-4,3.6-0.5,5.1-0.7c9.4-1.2,19-1.4,28.6-1.9c1.8,0.6,3.1,1.5,2.5,3.7
		c-12.4,3.6-25,4.4-37.8,3.6C187.5,205.9,188.5,204.5,189.4,203z"/>
	<path id="XMLID_915_" class="st179" d="M188.2,196.7c-0.4,0-0.8,0-1.2,0c-0.1-1.7-0.1-3.3-0.2-5c0.4-1.4,0.8-2.7,1.1-4.1
		c0.6,0.4,1.1,1,1.4,1.7C190,192,190,194.5,188.2,196.7z"/>
	<path id="XMLID_914_" class="st180" d="M188.2,189.2c-0.1-0.5-0.2-1-0.3-1.5c-2-3.5-1.1-7.2-1.1-10.9c0.4,0,0.8,0,1.3,0
		c0.9,1,3.6,1.6,6.1,1c4.5-1.1,8.8,0.6,13.2,0.5c6-0.1,10.4-3.1,15.5-4.9c4-0.4,8.6-3.1,10.6,3.2c-0.6,3.3-2.4,5.5-5.8,6.2
		c-2.1,0.1-4.3-0.5-6.1,0.6c-7.3,4.6-15.3,4.7-23.4,3.8C194.6,186.7,191.6,188.5,188.2,189.2z"/>
	<path id="XMLID_913_" class="st181" d="M183.2,286.4c3,2.1,6.1,2.3,9.1,0.3c1.8-1.2,2.9-1.2,3.4,1.1c-1.5,3.9-5.8,4-8.6,6.2
		c0,0-0.5,0.2-0.5,0.3c-15.1,3.2-30.1,7.1-45.7,7.5c-0.9,0-1.9,0.7-2.8,1c-7.8,0-15.7-0.3-23.2-2.9c-8-2.8-10.1-8.1-6.1-15.5
		c5.5-10.5,14.5-17.8,24.5-23.9c0.8,1.2,1.7,2.5,2.5,3.7c0.4,0.6,0.4,1.3,0.1,1.9c-1.7,2.8-4.3,5.1-5.7,8.2c-2.7,5.8-1.5,9,4.4,11.2
		c10.1,3.6,20.5,2,30.8,1.5C171.3,286.5,177.2,284.2,183.2,286.4z"/>
	<path id="XMLID_912_" class="st182" d="M175.8,275.6c1.2,3.9-1.2,5.1-4.3,5.7c-0.5,0.9-1.4,1.3-2.4,1.6c-3.2,0.6-6.5-0.1-9.6,1
		c-0.6,0.2-1.3,0.3-2,0.4c-4,0.1-8.1,0.5-12.1-0.3c-0.9-0.3-1.8-0.8-2.4-1.5c-2.1-3.3-4.2-6.6-6-10.1c-0.5-1.1-1-2.2-1.2-3.5
		c-0.1-0.9,0-1.8,0.5-2.7c1.3-2,2.4-0.5,3.6,0.1c8.7,4.6,18,7.2,27.8,7.7c2.4,0.1,4.5-0.6,6.7-1.2c0.4,0,0.8,0,1.2,0
		C175.7,273.8,175.7,274.7,175.8,275.6z"/>
	<path id="XMLID_911_" class="st117" d="M174.4,272.9c-0.7,3.5-3.4,2.8-5.8,2.8c-11.3-0.2-21.7-3.9-31.8-8.7c-1-0.1-1.6-0.5-1.2-1.6
		c0.1-0.4,0.1-0.8,0.1-1.2c3.4-2.2,6.9-0.3,9.8,0.8c7.9,2.9,15.9,5.1,24.3,5.4C171.9,270.4,173.5,270.9,174.4,272.9z"/>
	<path id="XMLID_910_" class="st183" d="M187.1,294c2.7-2.3,4.9-5.3,8.6-6.2c0.8,0.5,1.6,1,2.3,1.5c0,0.3,0.1,0.6,0.2,0.9
		C195,293,190.8,292.7,187.1,294z"/>
	<path id="XMLID_908_" class="st184" d="M254.3,106.9c0,0.9-0.1,1.7-0.1,2.6c-1.8,2.1-4,2.8-6.7,2.3c-1.9-0.7-3.3-1.6-1.9-3.9
		C248.1,103.8,251.5,107.9,254.3,106.9z"/>
	<path id="XMLID_907_" class="st185" d="M245.6,107.9c-0.1,1.8,0.8,2.7,2.6,2.8c0.1,1.1-0.5,1.7-1.5,2.1c-1.6,0.5-3.2,0.5-4.6-0.5
		c-1.2-1.5-0.3-2.3,1-2.9c0.5-0.8,0.9-1.5,1.4-2.3C244.8,107.4,245.2,107.6,245.6,107.9z"/>
	<path id="XMLID_906_" class="st186" d="M280.5,125.6c1.5,0.5,3.1,0.9,4.6,1.4c2.1,0.4,3.4,1.4,3.5,3.7c-0.8,4.5-2.5,8.5-5,12.3
		c-2.4,1-5.6,1.6-3.5,5.5c0.6,5.5-2.8,8.6-6.9,11.2c-1.5,0.2-2.5-0.5-3.2-1.7c-0.7-2.2,0.2-4.4,0.1-6.7c0-2.9,0.4-5.8,2.4-8
		c3-3.4,3.7-7.7,5-11.8C278.2,129.4,278.6,127.1,280.5,125.6z"/>
	<path id="XMLID_905_" class="st187" d="M280.5,125.6c-1.8,6.8-2.1,14.1-7.5,19.5c-2,1.9-0.9,4.7-1.4,7c-3.5-2.4-3.4-6.8-5.7-9.8
		c-0.3-0.8-0.9-1.8-0.5-2.3c4.2-5,5.5-11,6.7-17.1c0-0.2,0.6-0.2,1,0.1C275.7,123.6,278.7,122.9,280.5,125.6z"/>
	<path id="XMLID_904_" class="st188" d="M273.1,123c-0.7,6-0.7,12.2-6.2,16.5c-1,0.8,1,1.4,1.1,2.3c-2.1,1.5-3.8,1-5.4-0.8
		c-0.4-0.6-0.6-1.2-0.7-1.9c0.8-5.7,3.6-10.7,5.8-15.9c0.5-1.1,1.4-2.1,2.9-1.5C271.6,121.8,272.6,121.9,273.1,123z"/>
	<path id="XMLID_903_" class="st189" d="M288.3,130.4c-1.1-1.1-2.1-2.3-3.2-3.4c0.2-2.7,4.1-2.3,4.1-5.1c4-0.6,7,1.3,9.9,3.7
		c-0.4,2.7-3.6,3.8-3.6,6.6c-0.8,0.5-1.6,0.8-2.5,0.8C291,132.9,289.2,132.4,288.3,130.4z"/>
	<path id="XMLID_902_" class="st190" d="M270.6,121.8c-3.8,5.2-5.2,11.5-7.6,17.4c-2.5,1.1-4-0.3-5.3-2.2c-0.1-1.1,0.3-1.7,1.5-1.4
		c4.4-3.3,4.3-8.7,6.2-13.3c0.4-1.1,0.4-2.4,1.5-3.1C268.2,120,269.4,120.9,270.6,121.8z"/>
	<path id="XMLID_901_" class="st191" d="M295.3,131.7c-3-4.7,1.5-4.7,3.8-6.1c0.5,0,0.9,0,1.4-0.1c0.3,0,0.7,0,1,0.1
		c0.3,1.6,1.3,3.1,0.3,4.8C299.8,131.4,297.7,132.3,295.3,131.7z"/>
	<path id="XMLID_900_" class="st192" d="M254.4,110.5c2.5,1.7,4.9,3.4,7.4,5.1c-0.4,7.7,0,15.8-8.2,20.4c-2.1,0.3-3.7-0.3-4.8-2.3
		c-0.3-2.7,2.3-4.5,2.6-7c0.8-1.3,2.4-2.1,2.1-3.9c-1.4-3.5-0.4-7.4-2-10.8C252.1,110.9,253.2,110.7,254.4,110.5z"/>
	<path id="XMLID_899_" class="st193" d="M253.1,135.4c5.3-2.6,5.7-7.9,7-12.7c0.6-2.3,1.1-4.7,1.7-7c0.8,0,1.6-0.1,2.5-0.1
		c-1.7,6.7-3.3,13.4-5,20.1c-0.4,0.4-0.8,0.8-1.2,1.2C256,137.6,254.4,137.1,253.1,135.4z"/>
	<path id="XMLID_898_" class="st194" d="M254.4,110.5c-0.8,0.5-1.6,1-2.4,1.5c-1.2,1.8-2.8,2.5-4.9,1.5c-0.6-0.5-0.7-1-0.3-1.6
		c0.5-0.4,0.9-0.8,1.4-1.3c2-0.4,4-0.8,6-1.2C254.2,109.8,254.3,110.2,254.4,110.5z"/>
	<path id="XMLID_897_" class="st195" d="M198.1,155.6c-4.2,2.5-8.5,1.5-12.5-0.3c-1.2-0.5-2-2.1-3.6-1c0-0.8,0-1.7-0.1-2.5
		c0.4-0.8,0.9-1.6,1.3-2.4c3.5,1.8,3.3-2.4,5.3-3.2c3.3-0.4,6.4-0.2,9,2.3c0.8,1.4,1.2,3,1.5,4.5C199.1,154,198.9,154.9,198.1,155.6
		z"/>
	<path id="XMLID_896_" class="st196" d="M188.3,147c-0.4,3.5-2.1,4.3-5.1,2.4c-0.5-1-1.5-1.3-2.6-1.3c0-1,0.2-2,1.3-2.5
		c1.8,1.1,3-1.1,4.6-0.7C187.7,145.1,188.9,145.4,188.3,147z"/>
	<path id="XMLID_895_" class="st197" d="M200.6,251.6c4-3.6,8.5-5.1,13.7-2.6c-0.7,0.7-1.7,1.4-2.1,2.2c-2.4,5.6-6.1,5.3-10.5,2.6
		C200.9,253.4,199.8,253,200.6,251.6z"/>
	<path id="XMLID_894_" class="st198" d="M200.6,251.6c0.4,0.7,0.7,1.5,1.1,2.2c-0.9,0-1.8-0.1-2.7-0.1c-1.3-0.7-2.6-1.5-2.4-3.3
		c0.5-0.5,1-0.5,1.6-0.3C199,250.7,199.8,251.2,200.6,251.6z"/>
	<path id="XMLID_893_" class="st199" d="M196.9,250.4c0.7,1.1,1.5,2.2,2.2,3.4c-0.7,0-1.5,0.1-2.2,0.1c-0.4-0.8-0.8-1.5-1.2-2.3
		C195.3,250.4,195.9,250.2,196.9,250.4z"/>
	<path id="XMLID_892_" class="st200" d="M196.9,250.4c-0.4,0.4-0.8,0.8-1.2,1.2c-0.8-0.4-1.6-0.8-2.4-1.2c-0.5-1.2,1.2-2.5,0-3.7
		c0.1-0.3,0.1-0.6,0.1-0.9c3.8-2.1,3.5,1.6,4.6,3.3c0.1,0.4,0.2,0.8,0.2,1.2C197.7,250.3,197.3,250.3,196.9,250.4z"/>
	<path id="XMLID_891_" class="st122" d="M219.3,115.6c0.8,0,1.7,0,2.5,0c-3.2,8.1-8.5,13.7-17.5,14.9
		C209.8,126.1,217.1,123.3,219.3,115.6z"/>
	<path id="XMLID_890_" class="st201" d="M188.3,147c-0.5-1.1-1.4-1.4-2.6-1.5c-0.7-0.8-0.9-1.6,0.2-2.3c0.8-0.8,1.5-1.6,2.3-2.4
		c3.3,4.4,8.1,4.1,12.4,3.2c16.5-3.2,27.5-12.9,33.2-28.7c0.7-1.9,1.2-3.9,1.8-5.9c1.2-0.5,2.4-1,3.6-1.4c0.5,0.1,1,0.1,1.4,0.2
		c0.7,3.7-0.6,7.4-0.3,11.1c-0.1,0.6-0.2,1.1-0.5,1.7c-4.7,5.8-7.2,13.3-13.7,17.7c-1.2,0.7-2.6,1-3.8,1.7c-2.4,1.1-2.5,3.6-3.3,5.6
		c-0.5,0.8-1.1,1.3-2.1,1.2c-2.8-1.4-5.1,0.7-7.6,1.2c-4.1,0.7-8,3.4-12.3,1C194.3,147.3,191.1,147.9,188.3,147z"/>
	<path id="XMLID_889_" class="st202" d="M178.1,131.8c-2.5-2.2-4.5-4.7-6.2-7.5c0.5-1,1.5-1.2,2.5-1.2c1.5,0.8,3.5,1.4,2.6,3.9
		C177,128.7,180.8,129.5,178.1,131.8z"/>
	<path id="XMLID_888_" class="st203" d="M177,127c-0.9-1.3-1.7-2.6-2.6-3.9c0.8-0.8,1.7-1.6,2.5-2.5c1.8-0.1,3,0.8,3.7,2.4
		C179,124,179.6,127,177,127z"/>
	<path id="XMLID_887_" class="st168" d="M185.9,143.2c-0.1,0.8-0.1,1.5-0.2,2.3c-1.3,1.5-2.5,1.7-3.8,0c1.1-1.3,1-2.4-0.8-2.1
		c-1.6,0.3-3,1.3-4.3-0.4C179.8,142.3,182.9,140.8,185.9,143.2z"/>
	<path id="XMLID_886_" class="st204" d="M204.4,116.9c-1.5,1.4-3,2.8-1.3,5c-2.1,1.2-4.2,2.5-6.4,3.7c-3.9-0.4-3.7-3.2-3.6-6
		c0.2-3,2.5-3.7,4.8-3.8C200.1,115.6,202.6,114.8,204.4,116.9z"/>
	<path id="XMLID_885_" class="st205" d="M193,243.3c-0.8-0.6-1.5-1.1-2.3-1.7c-0.9-0.9-0.9-1.9-0.3-2.9c5.1-4.3,11.5-3,17.1-3.5
		c14.2-1.2,27.6-4.3,40.5-10.3c3.1-1.4,6.2-3.6,10-2.4c3.1,4.8-0.2,7.3-3.8,8.5c-16,5.5-31.4,13.4-49.1,12.3
		c-2.5-0.2-4.9,0.7-7.3,1.3C196.1,244.7,194.6,244,193,243.3z"/>
	<path id="XMLID_884_" class="st206" d="M190.4,239.3c0.1,0.8,0.2,1.6,0.3,2.4c-10.1-1.4-20.5-0.8-30.1-5.1c-2.3-1-4.1-2-3.7-4.9
		c4-3.5,7.4,0.1,10.7,1.3c7,2.6,14.7,1.6,21.5,4.9C190,238,190.4,238.5,190.4,239.3z"/>
	<path id="XMLID_883_" class="st207" d="M193,243.3c1.5-0.6,2.9-0.6,4,0.8c1.6,1.4,2.3,3,1,5c0,0-0.1-0.2-0.1-0.2
		c-2.7,0.6-1.9-3.8-4.6-3.3C193.2,244.9,193.1,244.1,193,243.3z"/>
	<path id="XMLID_882_" class="st208" d="M190.4,239.3c-0.4-0.4-0.8-0.9-1.3-1.3c0.1-0.4,0.2-0.8,0.3-1.3c0.7-4,3.9-2.8,6.4-3
		c15.7-1.3,31.2-3.6,45.7-10.4c1.5-0.7,2.8-1.7,4.1-2.7c0.5-0.4,1-0.7,1.5-0.9c2-0.6,4.3-0.8,5.3-3.2c1.1-1.4,2.5-2.3,4.1-2.9
		c3.1-0.3,6.4-3.8,9.1,0.7c0.9,1.3,0.6,2.5-0.2,3.7c-0.6,2.4-2.1,4.3-4.1,5.7c-1.3,0.4-2.4,0.3-3.4-0.7c-8.8,3.3-17.7,6.4-26.3,10.1
		c-7.5,3.2-15.4,2-23.1,3.6C202.6,237.9,196.3,237.2,190.4,239.3z"/>
	<path id="XMLID_881_" class="st209" d="M184.6,225c7.1-0.5,14.1-1.9,21.4-0.9c7.6,1.1,15.1-0.5,22.3-3.6c3.3-1.4,7.1-3.5,9.8,1.2
		c0.2,3.5-2.7,3.6-4.9,4.5c-15,5.8-30.6,6.8-46.5,6c-0.7-0.6-1.4-1.2-2.1-1.8C184.6,228.6,184.6,226.8,184.6,225z"/>
	<path id="XMLID_880_" class="st210" d="M186.6,232.2c2-2.8,5-1.9,7.4-1.7c14.5,1.1,28.2-2.5,41.9-6.7c0.8-0.3,1.4-1.4,2.1-2.1
		c0.5-2.5-1.2-5.4,1.5-7.4c0.3,0.3,0.5,0.7,0.5,1.1c0.2,0.8,0.1,1.6-0.3,2.4c0.8-0.2,0.2-1.1,0.7-1.6c0.3-0.3,0.4-0.7,0.7-1
		c0.8-1,1.8-1.5,3.2-1.4c2.2,1,3.5,2.5,3.4,5c-0.2,0.6-0.5,1.1-0.9,1.6c-4.4,6.3-11.3,8.5-18.1,9.6c-4.9,0.8-9.6,2.1-14.4,3
		c-7.5,1.4-14.8,3.5-22.5,2c-0.7-0.1-1.6,1-2.4,1.6C188.5,235.2,187.6,233.7,186.6,232.2z"/>
	<path id="XMLID_879_" class="st211" d="M309.2,176.4c3.8-6.2,7.6-12.4,10.3-19.2c1.2-2.9,2.4-5.7,2.1-8.9c1.2,0.3,1.2,1.3,1.5,2.2
		c0.6,0.9,0.6,1.7-0.1,2.5c-2.5,4.7,1.3,6.3,4.1,8.5c-1.2,4-1.7,8.4-6.5,10.1c-0.8,0.1-0.2,0.4-0.1,0.3c1.6-0.9,3.4-1.8,3.7,1.3
		c-1.7,1.7-4.3,1.3-6.1,2.6C315.3,177.3,312.5,179.8,309.2,176.4z"/>
	<path id="XMLID_878_" class="st212" d="M324.2,172.9c-0.8-1.2-5.4-0.7-1.5-4.2c1.9-1.7,1.9-5.4,4.5-7.2c1.7,1.2,3.4,2.5,5.7,2.5
		c-3.1,2.7-2.6,8.2-7.6,9.4C324.8,173.5,324.4,173.3,324.2,172.9z"/>
	<path id="XMLID_877_" class="st213" d="M323.1,153c0-0.8,0-1.7,0.1-2.5c0.6-0.4,1.2-0.9,1.8-1.3c0.2,1.7,0.3,3.4,0.5,5.1
		C324.7,153.9,323.9,153.5,323.1,153z"/>
	<path id="XMLID_874_" class="st214" d="M261.4,222.9c1-2,1.6-4.2,4.1-5c12.7-5.5,22.4-14.6,31.2-24.9c2.1-2.5,3.7-5.6,7.3-6.2
		c0.4-0.5,1-0.7,1.7-0.7c2,0.5,4.5,0.2,5.1,3.1c-5.5,4.8-9.5,11-15.1,15.7c-9.1,7.9-17.5,16.5-28.7,21.4c-2.2,1-3.7,2.6-5.2,4.4
		C256.6,228.4,258.3,225.7,261.4,222.9z"/>
	<path id="XMLID_873_" class="st215" d="M236.9,208.1c3.3-2.1,6.8-3.9,8.7-7.6c0.6-0.7,1.4-0.9,2.4-0.9c3,0.8,4.9-1,7.2-2.4
		c5.8-3.7,9.5-10.3,16.5-12.5c1.5-0.3,2.9,0.1,4,1.2c0.4,0.4,0.6,0.9,0.8,1.5c0.2,1.4,0,2.8-0.8,4c-1.9,0.7-2.7,2.5-3.9,3.9
		c-2.1,1.9-4.7,3.2-6.9,4.9c-6.4,4-14,6.3-18.8,12.6c-0.4,0.4-0.9,0.7-1.5,0.7c-0.9,0-1.6-0.3-2.3-0.9
		C240.9,210.6,238.6,209.7,236.9,208.1z"/>
	<path id="XMLID_872_" class="st216" d="M305.1,186.9c-0.4,0-0.7-0.1-1.1-0.1c-3.1-4.8,3.7-5.6,3.8-9.1c1.2,0.5,2,1.4,3.2,2
		c5.5,1,11.1,0.2,16.6,0.5c2.7,0.1,5.3,0.3,7.8,1.7c0.4,2.5-2.4,2.2-3.1,3.8c-0.2,0.4-0.4,0.8-0.6,1.2
		C322.9,188.2,314,186.9,305.1,186.9z"/>
	<path id="XMLID_871_" class="st217" d="M265.7,214.3c-2.9-3.2-5.9,1.5-8.9-0.1c-5-1.6-2.7-4.2-0.5-6c2.7-2.2,5.5-4.1,7.4-7.1
		c1.8-0.8,2.8-3.8,5.5-1.9c0.4,1.3,0.8,2.6,1.3,3.8c2,1.2,2.2,2.3,0,3.5C268.9,209.1,267.3,211.7,265.7,214.3z"/>
	<path id="XMLID_870_" class="st218" d="M309.2,180.5c-1.1-0.6-1.2-1.8-1.4-2.9c0.5-0.4,1-0.8,1.4-1.2c3.4,1.3,5.8-0.8,8.3-2.3
		c2.7-0.6,5.3-0.9,8,0.1c0.8,0.4,1.5,0.9,2.3,1.3c0.7,3.8,5.2,0.8,6.5,3.5c-1.6,3.5-4.6,0.7-6.8,1.6c-5.8-0.5-11.5-0.1-17.3-0.2
		C309.9,180.5,309.5,180.5,309.2,180.5z"/>
	<path id="XMLID_869_" class="st219" d="M275.6,191.4c-1.2-1.2-0.6-2.4,0.1-3.6c2.9-0.1,3.7,3.3,6.2,3.8c0.7,1.4,1.9,2.3,3.4,2.7
		c-2,3-5.6,2.2-8.2,3.6c-1.8-1.7,0.4-4.3-1.5-5.9C275.4,191.8,275.4,191.6,275.6,191.4z"/>
	<path id="XMLID_868_" class="st220" d="M270.5,206.6c0.8-1.2,0.8-2.3,0-3.5c2-0.1,4-0.2,6.4-0.3c-1.6,2.4-3,4.5-4.4,6.7
		C271.2,208.9,272.1,206.9,270.5,206.6z"/>
	<path id="XMLID_867_" class="st221" d="M269.2,199.3c-2.4-0.5-3.3,1.8-5,2.6c-0.6-0.9-0.7-1.8,0.2-2.6c1.6-2.8,4.3-3.5,7.2-4
		C272.3,197.5,270.1,198,269.2,199.3z"/>
	<path id="XMLID_866_" class="st222" d="M275.4,192c2.2,1.5,0.7,4,1.5,5.9C274.6,196.4,275.9,194,275.4,192z"/>
	<path id="XMLID_865_" class="st223" d="M281.8,191.6c-3.7,1.4-4.5-1.9-6.2-3.8c0-0.4,0-0.7-0.1-1.1c3.3-6,8.7-10.4,12.6-16
		c5.2-7.5,9.4-15.5,13.1-23.8c0.4-0.4,1-0.7,1.6-0.7c1.5,0.2,2.8,1,4,1.9c-0.4,9.9-6.9,16.9-11.7,24.6c-3.5,5.6-7.5,10.9-12.6,15.2
		C281.2,189,280.8,190.2,281.8,191.6z"/>
	<path id="XMLID_864_" class="st224" d="M307.7,139.2c1.2,0.1,2.3,0.4,2.8,1.6c-0.2,3.3-1.6,4.9-5.1,3.7c-2.9-1.5-6.3,0.9-9.1-1
		c-1.3-1.1-1.9-2.4-1.2-4.1c0.9-1,2.1-1.1,3.4-1.1c2.5,0.6,5,1,7.6,0.5C306.7,138.7,307.3,138.9,307.7,139.2z"/>
	<path id="XMLID_863_" class="st225" d="M296.8,142.9c1.9,0.3,3.6,0.3,5.4-0.5c1.8-0.7,3.3-0.5,3.2,2c0,0.3,0.1,0.6,0.1,0.9
		c-0.8,0.8-2,0.7-2.9,1.4c-0.3,0-0.6,0-0.9,0c-2.3,0.5-3.6-1.2-5.2-2.3C296.3,143.9,296.4,143.4,296.8,142.9z"/>
	<path id="XMLID_862_" class="st226" d="M302.7,146.8c-0.1-0.7-0.6-1.8-0.3-2.1c1.2-1,2,0.6,3.1,0.7c0.4,0.9,0.8,1.8,1.2,2.7
		C305.2,148.2,303.7,148.4,302.7,146.8z"/>
	<path id="XMLID_861_" class="st227" d="M299.3,139.4c-1.2,0-2.4-0.1-3.6-0.1c-1.9,9.7-6.6,18.1-12.3,25.8
		c-3.6,4.8-6.4,10.2-11.2,14.1c-1.9,1.5-3.3,3.9-6.3,3c-1.8-2.6,0.1-4.4,1.7-5.7c2.9-2.4,4.9-5.5,6.7-8.7c0.6-1,1.1-2.1,1.6-3.1
		c4.7-6.1,9.1-12.6,10.9-19.9c1.2-5,3.2-9,6.3-12.8c0.8-0.1,1.5-0.1,2.3-0.2c2-1.5,4.2-1.7,6.6-1.2c2.1,2.8,5.4,4.8,5.9,8.8
		c-0.4,0-0.7,0.1-1,0.2C304.2,140.2,301.8,140.2,299.3,139.4z"/>
	<path id="XMLID_858_" class="st228" d="M239.3,119.4c-1.6-4,0.1-7.6,1.3-11.2c0.8,0.4,1.7,0.9,2.5,1.3c-0.4,0.8-0.8,1.6-1.2,2.3
		c0.2,1,0.8,1.8,0.7,2.8c-0.2,1.5,0.1,3-0.5,4.5C241.3,120,240.4,120.3,239.3,119.4z"/>
	<path id="XMLID_852_" class="st55" d="M135.6,265.3c0.4,0.5,0.8,1.1,1.2,1.6c0.1,0.7,0.1,1.4,0.2,2.1c-2,2.5-4.5,4.6-5,8.1
		c-0.9,3.4,1.4,4.7,3.9,5.8c2.2,1,4.7,0.9,7.1,1.5c5.8,0.7,11.5,0.9,17.2-0.2c1-0.3,1.9-0.4,2.9-0.5c2.9-0.2,5.9,0.1,8.8-0.7
		c1.4-0.2,2.7,0,3.7,1c2.7,0.2,5.7-0.9,7.5,2.3c-12.7,1.4-25.4,3.6-38.3,2.8c-2.5-0.2-4.9-0.2-7.4-0.9c-12-3.5-13.9-9.6-5.9-19.4
		C132.7,267.5,133.3,265.4,135.6,265.3z"/>
	<path id="XMLID_851_" class="st9" d="M175.7,284.1c-1.2,0-2.5,0-3.7,0c-2.8,1.6-6-0.5-8.8,1.2c-0.8,0-1.6,0-2.4,0
		c-6.3,0.9-12.5,1-18.8,0c-3.3,0.3-6.4-0.4-9.3-2.2c-2.6-1.7-3.7-3.7-1.9-6.6c1.6-0.7,2.4,0.8,3.6,1.3c2.7,1.8,6,2.2,9,3.5
		c0.4,0.2,0.8,0.5,1.3,0.7c4.4,2.6,9,1.4,13.6,0.6c0.3-0.3,0.6-0.3,0.9-0.1c3.3-1.4,7,0.5,10.3-1.1c0.7-0.1,1.4-0.2,2.1-0.3
		c1.2,0.1,2.4,0.3,3.5,0.2C179.1,281.5,176,283.1,175.7,284.1z"/>
	<path id="XMLID_850_" class="st229" d="M261.4,222.9c-1.8,2.6-2.5,5.1,0.4,7.5c0.7,1.6-0.7,2.6-1.2,3.8c-0.8,0.4-1.5,0.9-2.3,1.3
		c-0.7-2.3-0.5-3.9-4.3-2.1c-15.5,7.5-32,12.1-49.2,13.2c-2.6,0.2-4.9,0.4-6.6,2.5c-0.3-1.7-0.7-3.4-1-5c1.6-2.4,3.9-2.7,6.5-2.5
		c15.3,1.2,29-4.2,42.7-9.8c1.7-0.7,3.4-1.2,5.3-1.6c4-0.7,7-2.6,6.4-7.4C259.2,222.9,260.3,222.9,261.4,222.9z"/>
	<path id="XMLID_849_" class="st230" d="M260.6,234.2c0.4-1.3,0.8-2.5,1.2-3.8c-0.1-2.5,0.7-4.1,3.4-5.1
		c11.9-4.7,20.9-13.4,29.8-22.3c4.3-4.3,9.7-7.7,12.3-13.6c0.2-0.4,2-0.1,3-0.2c0.3,0.2,0.5,0.4,0.5,0.6c0,0.3-0.1,0.4-0.2,0.4
		c-0.5,2.1-4.4,3.5-1.4,6.5c-9.3,6.7-16.2,16.1-25.7,22.6c-6,4.2-11.5,9.3-18.8,11.3C263.1,231.1,261.9,233,260.6,234.2z"/>
	<path id="XMLID_848_" class="st231" d="M310.6,190.3c0-0.4-0.1-0.7-0.3-1.1c-0.9-2.7-4.2,0.2-5.1-2.3c8.8-2.4,17.7-2.1,26.5-0.2
		c-3.2,4-8.2,3.4-12.1,3.5C316.7,190.3,313.6,190.6,310.6,190.3z"/>
	<path id="XMLID_847_" class="st232" d="M328,180.5c1.8-1.9,4.4-0.2,6.3-1.4c1.3,0.5,1.4,1.5,1.1,2.7c-8.7-0.5-17.5,1.4-26.1-1.2
		c0,0,0,0,0,0C315.5,179.5,321.7,179.5,328,180.5z"/>
	<path id="XMLID_846_" class="st233" d="M325.5,174.2c-2.7,0-5.3-0.1-8-0.1c2-1.7,4.4-0.8,6.7-1.2c0.3,0.3,0.7,0.4,1.1,0.5
		C325.3,173.7,325.4,174,325.5,174.2z"/>
	<path id="XMLID_843_" class="st234" d="M236.9,208.1c2.8-0.3,5,0.6,6,3.4c-1.4,1.7-3.2,0.7-4.9,0.6c-1.2-0.1-2.4-0.3-3.5-0.4
		c0.3-0.8,0.6-1.7,1-2.5C235.9,208.8,236.4,208.4,236.9,208.1z"/>
	<path id="XMLID_842_" class="st235" d="M241.6,215.5c-1.8,2.1,1.1,4.7-0.9,7.3c-2.9-2.7-1.3-5.7-1.1-8.4c0.3,0,0.7,0,1,0
		C241.1,214.5,241.4,214.9,241.6,215.5z"/>
	<path id="XMLID_841_" class="st236" d="M241.6,215.5c-0.3-0.4-0.7-0.8-1-1.2c-0.9-0.7-1.8-1.5-2.6-2.2c1.6-0.2,3.2-0.4,4.9-0.6
		c0.6,0.6,1.2,1.1,1.7,1.7l0.2,0.6l-0.4,0.4C243.4,214.6,242.5,215,241.6,215.5z"/>
	<path id="XMLID_840_" class="st237" d="M225.6,204.2c-0.8-1.2-1.7-2.5-2.5-3.7c4.6-2.4,9.2-4.9,13.7-7.3c3.3-1.6,5.7-1.2,6.7,2.7
		c-0.2,0.3-0.4,0.5-0.6,0.8C237.5,200.1,231.3,201.7,225.6,204.2z"/>
	<path id="XMLID_839_" class="st238" d="M248.2,200.9c-0.9-0.1-1.8-0.2-2.6-0.4c-0.9-1.3-1.8-2.6-2.7-3.8c0,0,0.5,0.1,0.5,0.1
		c1-1.2,2.3-1.8,3.8-1.7c1.6,0.5,2.4,1.7,2.8,3.3C250.1,199.6,249.8,200.7,248.2,200.9z"/>
	<path id="XMLID_838_" class="st239" d="M198.1,155.6c0-0.8-0.1-1.6-0.1-2.4c4-3.1,8.4-3.2,13-2c0.2,0.6,0.1,1.2-0.3,1.8
		c-1.9,2.1-3.6,4.5-7.1,3.8c-1.6-0.3-2.8,0.5-2.9,2.3C198.8,158.7,199.7,156.3,198.1,155.6z"/>
	<path id="XMLID_837_" class="st103" d="M223.2,174c-6.2,5.6-13.5,6.2-21.4,5.3c-2.9-0.3-6.2-1-8.6,0.2c-3.8,1.9-3.7-1.3-5.1-2.7
		c0.8-3.8,3.8-2.4,6-2.4c8.6-0.1,17.1-0.2,25.2-3.8C222.1,170.1,223.1,171.5,223.2,174z"/>
	<path id="XMLID_836_" class="st240" d="M223.2,174c-1-1.4-2-2.9-3.8-3.5c-0.4-0.1-0.8-0.1-1.2-0.1c0.1-1.1,0.4-2.1,1.5-2.6
		c1.5-0.5,3.1,0.1,4.6,0.1c1.8,0.1,1.5-1.1,1.2-2.2c-0.1-1.8-1.7-3.3-1.3-5.2c0.4-0.4,0.9-0.6,1.5-0.8c1.6-0.2,2.8,0.5,3.5,1.9
		c1.5,1.1,2.7,2.6,3.7,4.2c0.7,0.4-0.3,0.7,0.3,0.1c0.2-0.2,0-0.6-0.3-0.8c-1.1-1.3-2.4-2.5-3.7-3.6c-0.1-0.6,0-1.1,0.5-1.5
		c0.5-0.3,1.1-0.5,1.7-0.6c2.7-0.3,4.9,0.4,6.3,2.8c0.6,1.1,1,2.2,1.5,3.3c2.8,3.2-1.8,6.8,0.7,10c0,1-0.5,1.6-1.3,2
		c-1.5,1-2.7-1.4-4.2-0.3c-0.5,0.1-0.9-0.1-1.2-0.5C230.8,171.6,226.3,175.4,223.2,174z"/>
	<path id="XMLID_835_" class="st241" d="M210.7,153c0-0.4,0-0.7,0-1.1c0.7-3.3,2.4-5.5,6.1-5.3c0.4-0.4,0.9-0.7,1.3-1.1
		c14.8-1,29.6-1.5,44.3,0.4c1.6,1,1.7,2.6,1.4,4.2c-1,2.5-2.9,3.7-5.4,4.4c-15.5,0.5-31,1.2-46.6-0.4
		C211.5,153.8,211.1,153.4,210.7,153z"/>
	<path id="XMLID_834_" class="st12" d="M211.9,154.1c1.9-1.9,4.3-1,6.5-1.1c13.6-0.1,27.2,0,40.9,0c0.4,0.4,0.7,1,0.7,1.6
		c-0.1,1.3-0.7,2.4-1.5,3.3c-1.4,1.4-3.2,2-5.1,2.5c-2.6,0.5-5.2,0.5-7.8,0.2c-5-1.1-10.1-1.7-15.2-0.3c-0.4,0.1-0.7,0.1-1.1,0.2
		c-1.3-0.9-2.5-1.7-3.8,0c-0.4,0.1-0.8,0.3-1.1,0.6c-1.1,0.2-1.9-0.3-2.7-0.9c-0.4-0.3-0.7-0.5-1.1-0.8c-0.9-0.4-1.7,0.1-2.6,0.4
		c-0.2,0-0.5,0.1-0.7,0.1c-0.2,0-0.5-0.1-0.7-0.1c-1.2-0.4-2.2-1.1-3.1-2c-0.7-0.7-1.4-1.3-1.8-2.3
		C211.8,155,211.9,154.6,211.9,154.1z"/>
	<path id="XMLID_833_" class="st242" d="M211.7,155.4c1,0.1,2,0.3,2.6,1.3c-0.4,1.2-1.2,2-2.5,2.2c-0.9,0.1-2.1,0.5-2.2-1
		C209.6,156.7,210.7,156,211.7,155.4z"/>
	<path id="XMLID_832_" class="st243" d="M211.9,159c0.8-0.7,1.6-1.5,2.5-2.2c0.8,0.8,1.7,1.7,2.5,2.5c-0.3,1-1,1.7-1.9,2.3
		c-0.2,0.1-0.5,0.2-0.7,0.3C213.5,160.9,212.7,159.9,211.9,159z"/>
	<path id="XMLID_831_" class="st243" d="M214.3,165.5c-0.4-0.1-0.7-0.2-1.1-0.3c0.3-1.1,0.7-2.3,1-3.4c0,0,0.3-0.3,0.3-0.3
		c1.3-0.5,2.4-0.3,2.6,1.2C217.6,164.9,215.9,165.2,214.3,165.5z"/>
	<path id="XMLID_830_" class="st244" d="M214.3,165.5c0.4-1.3,4.5-2.4,0.2-4c-0.2-1.7,0.8-2.2,2.3-2.3c0,0,0,0,0,0
		c1.3,1.1,3.2,0.9,4.4,2.2c0.8,0.9,1.4,1.9,1.2,3.1c-0.6,1.3-1.5,1.8-2.9,1.2C217.9,164.6,215.9,168,214.3,165.5z"/>
	<path id="XMLID_829_" class="st245" d="M219.6,165.9c1.1-0.1,2.2-0.2,2.6-1.5c1.6-1.1,2.4-0.2,3.1,1.2c0.3,1.4,0.1,2.7-1.2,3.6
		c-1.7,0.2-3.1-0.5-4.4-1.4C219.6,167.1,219.6,166.5,219.6,165.9z"/>
	<path id="XMLID_828_" class="st246" d="M188.2,189.2c1.4-2.4,2.9-3.9,6.2-3.8c9.5,0.2,19.4,2.1,28-4.4c1.8-1.4,4-0.1,5.9,0.8
		c1.5,2.3,0.5,4-1.2,5.6c-8.8,5.4-18.5,5.5-28.3,4.8c-4.1-0.3-7.4,0.7-9.3,4.5c-0.4,0-0.8,0-1.2,0
		C188.2,194.2,188.2,191.7,188.2,189.2z"/>
	<path id="XMLID_827_" class="st179" d="M189.4,196.7c-0.7-4.7,1-6.8,6-6.3c5.1,0.5,10.3-0.2,15.3,0.3c6.1,0.7,10.6-4.2,16.5-4.1
		c1.6,0.1,2.7,0.7,2,2.6C216.5,194.6,203.4,198.1,189.4,196.7z"/>
	<path id="XMLID_826_" class="st247" d="M247,195.1c-0.7,1.6-2.2,1.5-3.6,1.6c-0.9-3.6-4.1-2.8-6.6-3.6c-2.1-0.8-4.2-1.6-6.4-2.5
		c-0.7-2.7,1.2-4.4,3-5.4c3.7-2,6.9-4.9,10.9-6.4c2.7,3,4.3,6.5,4.9,10.6C249,191.6,248.1,193.4,247,195.1z"/>
	<path id="XMLID_825_" class="st248" d="M244.1,179.2c-1.8,3.2-4.6,4.9-8,6.1c-2.6,0.9-4.3,3-5.6,5.4c-0.4-0.5-0.8-1-1.2-1.5
		c-0.7-0.9-1.4-1.7-2-2.6c0.3-1.6,0.7-3.2,1-4.8c1.6-1.7,3.2-3.4,4.8-5.2c0.4,0,0.9,0,1.3,0c1.2,0.5,2.4,1.1,3.8,0.4
		c0.4-0.5,0.9-1,1.3-1.5c2.4-0.8,3.9,0.4,5.1,2.2C244.7,178.3,244.6,178.8,244.1,179.2z"/>
	<path id="XMLID_824_" class="st249" d="M143.3,281.4c-3.9,1.4-6.9-0.9-10.1-2.3c0-3.6,0.2-7,4.9-7.5
		C139.9,274.9,142.4,277.7,143.3,281.4z"/>
	<path id="XMLID_823_" class="st250" d="M138.1,271.6c-3,1.6-3.3,4.9-4.9,7.5c-0.8-0.8-1.7-1.7-2.5-2.5c0.9-3.5,2-6.9,6.3-7.5
		C137.4,269.9,137.8,270.8,138.1,271.6z"/>
	<path id="XMLID_822_" class="st251" d="M158.2,282.8c-4.6,1.8-9.2,2.8-13.6-0.6C149.1,283.4,153.7,282.3,158.2,282.8z"/>
	<path id="XMLID_821_" class="st251" d="M169.4,281.6c-3.2,2.4-6.8,0.8-10.3,1.1C162.4,281.4,165.9,281.7,169.4,281.6z"/>
	<path id="XMLID_820_" class="st252" d="M241.8,114.3c-0.1-0.8-1.5-1.7,0-2.5c1.7,0,3.3,0.1,5,0.2c0,0.4,0,0.8,0,1.2
		c0.2,1.2-0.5,1.7-1.5,2.1C244,115.6,242.8,115.4,241.8,114.3z"/>
	<path id="XMLID_819_" class="st253" d="M293,131.9c0,2.5,0.4,5.1-2.8,6.1c-0.5,0.2-1.3,0.7-1.3,1.1c0.4,11-6.8,18.5-12.3,26.7
		c-3.6-0.6-5.4-2.4-3.8-6.2c2-3.9,6.9-6.2,6.4-11.5c1.5-1.6,2.9-3.2,3.8-5.2c0.9-4.6,2.9-8.7,5.3-12.6
		C289.9,130.9,291.4,131.4,293,131.9z"/>
	<path id="XMLID_818_" class="st254" d="M259.3,154.4c0-0.5,0-0.9-0.1-1.4c1.2-0.8,2.5-1.7,3.7-2.5c1.2-2.1,1-3.9-1-5.4
		c-0.6-0.6-0.9-1.4-0.9-2.2c0.2-1.2,0.8-2.1,2-2.5c1.5,1,3.1,1.6,4.9,1.4c2.4,3,2.4,6.9,3.6,10.4c-0.4,2-0.7,3.9-1.1,5.9
		c0.5,0.6,0.4,1.1-0.2,1.6C265.8,159.6,260.8,160.8,259.3,154.4z"/>
	<path id="XMLID_817_" class="st255" d="M283,143c1.6,3.8-0.3,5-3.8,5.2c-3.7-1.1-1.4-4-0.9-5.3C279.4,140.7,281.4,142.2,283,143z"
		/>
	<path id="XMLID_816_" class="st256" d="M270.5,159.2c0-0.4,0-0.8,0-1.2c0.8,0.6,1.5,1.1,2.3,1.7c-0.1,2.9,1.8,4.5,3.8,6.2
		c-0.1,0.9-0.1,1.8-1.1,2.2c-1.5,0.9-3.1,1.4-4.8,0.5C269,165.5,269.2,162.3,270.5,159.2z"/>
	<path id="XMLID_815_" class="st257" d="M263.1,140.4c-0.4,0.9-0.9,1.8-1.3,2.7c-7.4,1.9-11.1-3.2-15.2-7.8
		c-0.3-0.5-0.5-1.1-0.6-1.7c0-0.6,0.2-1.2,0.5-1.7c1.5-0.8,2.2,0.1,2.8,1.3c0.9,1.4,2.4,1.7,3.8,2.2c1.7,0.5,3.3,0.9,5,1.4
		c1.7,0.8,3.3,1.6,5,2.4C263.1,139.6,263.2,140,263.1,140.4z"/>
	<path id="XMLID_814_" class="st258" d="M246.9,132.2c0,0.3,0,0.6-0.1,0.9c-2.4,2-5,1.9-7.8,1c-1-0.6-1.7-1.5-0.9-2.4
		c4.5-4.9,5.6-11.2,7.4-17.2c0.4-0.4,0.8-0.8,1.3-1.2c1.7-0.4,3.4-0.7,5.2-1.1c4.8,2.8,0.1,8.2,3.2,11.4c-1.5,1.3-4,1.1-5.1,3.2
		C249.2,128.6,248.5,130.7,246.9,132.2z"/>
	<path id="XMLID_813_" class="st259" d="M246.9,132.2c0.3-2.4,0.6-4.8,2.5-6.7c1.3-0.5,2,0.2,2.4,1.3c1.8,3.2-1.1,4.4-2.6,6.3
		C248.5,132.8,247.7,132.5,246.9,132.2z"/>
	<path id="XMLID_812_" class="st260" d="M251.8,126.9c-0.8-0.4-1.6-0.9-2.4-1.3c1.2-2.7,3.4-2.7,5.8-2.1
		C255.6,126.1,253.6,126.4,251.8,126.9z"/>
	<path id="XMLID_811_" class="st261" d="M216.8,146.6c-2,1.8-4.1,3.5-6.1,5.3c-4.2,0.4-8.5,0.9-12.7,1.3c-1.2-1.1-1.2-2.5-1.1-3.9
		c6-0.9,12.1-1.8,17.5-4.7C217.6,143,216.6,145.2,216.8,146.6z"/>
	<path id="XMLID_810_" class="st262" d="M246.8,134.3c4.6,3.7,8.4,8.6,15,8.7c0.4,0.4,0.8,0.8,1.2,1.3c0.7,0.8,0.7,1.7,0,2.5
		c-12.6,0-25.1,0-37.7,0c-2.5,0-5,0.1-7.2-1.3c-0.1-2.9-0.3-5.9,3.7-6.4c1.7-0.8,3.5-0.3,5.2-0.9c3.7,1.6,3.5-3,5.7-3.7
		c1.3-1,2.6-1.5,4.2-1.3C240.1,135.2,243.7,132.6,246.8,134.3z"/>
	<path id="XMLID_809_" class="st228" d="M233.2,135.7c-1.9,1-1.5,5.2-5.2,3.6c-0.6-0.9-1.9-0.3-2.5-1.3c5.8-4.8,7.5-13,13.7-17.4
		c0.5-0.4,1-0.4,1.5-0.1c1.4,5.8-2.1,9.5-5.8,13C234.4,134.2,233.5,134.6,233.2,135.7z"/>
	<path id="XMLID_808_" class="st263" d="M240.6,120.6c-0.4,0-0.8-0.1-1.2-0.1c0-0.4,0-0.8,0-1.2c1-0.1,2-0.3,2.5-1.3
		c1.8-0.3,3,0.8,2.4,2.3C243.6,121.8,241.9,121.6,240.6,120.6z"/>
	<path id="XMLID_807_" class="st143" d="M225.6,138c1,0.1,1.9,0.3,2.5,1.3c-2.1-0.1-4.1-0.1-6.2-0.2
		C222.8,137.8,224.3,138.1,225.6,138z"/>
	<path id="XMLID_806_" class="st264" d="M264.5,199.3c-0.1,0.9-0.2,1.7-0.2,2.6c-0.6,3.8-3.5,5.3-6.4,6.8c-2.7,1.4-3.7,3.1-1,5.5
		c-1.2,0.8-2.3,1.6-3.5,2.5c-1.5,0.4-3.1,1.4-4.6-0.1c-1-1.3-2.3-2.3-3.1-3.8c0.3-1.3-1.6-3,0.6-3.8
		C252.7,206.7,257.5,200.9,264.5,199.3z"/>
	<path id="XMLID_805_" class="st265" d="M249.5,216.6c1.3,0.5,2.6-1.4,3.8,0.1c0.1,3.9-2.6,3.9-5.4,3.8c-0.3-0.5-0.4-1-0.4-1.5
		C247.7,217.8,248.1,216.8,249.5,216.6z"/>
	<path id="XMLID_804_" class="st266" d="M248.1,219c-0.1,0.5-0.1,1-0.2,1.5c-0.3,0-0.7-0.1-1-0.1c0-0.5,0-0.9,0-1.4
		C247.3,218.6,247.7,218.6,248.1,219z"/>
	<path id="XMLID_803_" class="st267" d="M248.1,219l-0.6,0c0,0-0.6-0.1-0.6-0.1c0.1-2.1-1.9-3.1-2.6-4.8c0.1-0.3,0.2-0.7,0.2-1
		c0.4-0.1,0.7-0.2,1-0.4c2.5,0.1,4.3,0.9,3.9,3.8C249,217.4,248.5,218.2,248.1,219z"/>
	<path id="XMLID_802_" class="st268" d="M296.7,144.3c2.3-0.5,3.6,1.2,5,2.5c-1.9,10.7-8.4,19-14.5,27.4c-3.3,4.6-6.8,9.4-11.8,12.5
		c-1.3-0.4-2.3-1.5-3.8-1c-0.4-0.5-0.5-1.1-0.5-1.7c2-4.7,5.9-8,8.9-11.9c6-7.7,11.7-15.6,14.4-25.2
		C294.7,145.7,295.4,144.7,296.7,144.3z"/>
	<path id="XMLID_801_" class="st269" d="M271.6,184.6c0,0.4,0,0.8,0,1.2c-6.5,3.5-11,9.5-16.9,13.8c-2.1,1.5-3.9,3.1-6.5,1.3
		c1.2-0.6,1-1.7,1-2.8c5-6.2,9.7-12.8,18.2-14.9C269,183,270.6,182.8,271.6,184.6z"/>
	<path id="XMLID_800_" class="st233" d="M328,180.5c-6.2,0-12.5,0-18.7,0C315.5,178.5,321.7,178.5,328,180.5z"/>
	<path id="XMLID_799_" class="st270" d="M271.6,184.6c-1.6-0.1-3.2-0.1-4.9-0.2c-1.2,0.7-2.2,0.6-2.8-0.8c0.1-1,0.7-1.6,1.6-1.8
		c5.2-1.5,7.9-5.9,11-9.7c8-10,13.8-21.2,19.2-32.7c0.4,1.2,0.7,2.4,1.1,3.6c0,0.5,0,0.9,0,1.4C293.1,160.7,281.9,172.3,271.6,184.6
		z"/>
	<path id="XMLID_798_" class="st271" d="M299.3,139.4c2.5,0,5,0,7.4,0C304.2,141.1,301.8,141.2,299.3,139.4z"/>
	<path id="XMLID_797_" class="st272" d="M265.5,181.7c-0.3,0.4-0.6,0.8-0.9,1.2c-2.4-0.5-4.7-2-7.2-0.5c-3-0.1-5.2-1.5-6.3-4.4
		c0.1-1.8,1.4-2.7,2.8-3.4c0.6-0.2,1.2-0.4,1.8-0.5c5.8,0.9,9.1-2.6,12.1-6.7c0.9-0.3,1.8-0.2,2.6,0.4c1.7,0.1,3.3,0.1,5,0.2
		C274.3,174.2,267.7,176.3,265.5,181.7z"/>
	<path id="XMLID_796_" class="st185" d="M240.6,120.6c1-0.2,2.5,0,2.8-0.5c0.6-1.1-0.7-1.6-1.5-2c-0.8-1.3-0.8-2.5,0-3.8
		c1.2,0,2.5,0,3.7,0.1c1.1,7.7-1.6,13.8-7.5,18.7c-0.3,0.5-0.7,0.9-1.3,1.2c-1.2,0.5-2.4,1-3.6,1.5c0.6-3.6,4.2-5.5,5.4-8.8
		C239.4,124.8,240.8,123,240.6,120.6z"/>
	<path id="XMLID_795_" class="st250" d="M141.9,285.4c6.3,0,12.5,0,18.8,0C154.5,287.3,148.2,287.4,141.9,285.4z"/>
	<path id="XMLID_794_" class="st273" d="M163.2,285.4c2.6-2.4,5.9-0.8,8.8-1.2C169.3,286.4,166.1,284.9,163.2,285.4z"/>
	<path id="XMLID_793_" class="st274" d="M258.1,181.9c3.2-5.5,4.7-0.9,6.6,1.1c0.2,1.3,1.4,0.8,2.1,1.4c-7.4,2.6-11,10.1-17.6,13.7
		c-0.7-1-1.4-1.9-2.1-2.9c-1.8-2.3,0.9-3,1.4-4.5C252.5,188.6,254.4,184.3,258.1,181.9z"/>
	<path id="XMLID_792_" class="st275" d="M255.6,175.4c-0.5,0.1-0.9,0.2-1.4,0.2c-3.2,1.5-5.9,0.4-8.6-1.3c-3-2.6-2.6-8-7.7-8.8
		c-1-0.7-1.1-1.6-1.1-2.7c2.6-1.8,5.6-2.6,8.7-2.9c0.9,0,1.8-0.1,2.7,0.3c0.7,0.4,1.3,1.1,2,1.4
		C256.8,165.1,257.7,167.5,255.6,175.4z"/>
	<path id="XMLID_791_" class="st276" d="M238,165.5c4.2-1.5,7.2,1.6,7.6,7.8c1.3,1.4,1.4,2.9,0.4,4.5c-0.5,0.5-1.1,0.6-1.8,0.2
		c-1.6-0.8-3.2-1.7-4.8-2.5c-1.7-1.6-4.5-2.8-0.9-5.6C239.8,169,238.3,167,238,165.5z"/>
	<path id="XMLID_790_" class="st277" d="M245.6,160.4c-2.7,1.6-5.4,3.1-8.7,2.4c-1.4-2.7-4-2.2-6.3-2.4c4.8-2.9,9.8-3.4,15.1-1.1
		c0.4,0.3,0.5,0.5,0.4,0.8C245.8,160.3,245.7,160.4,245.6,160.4z"/>
	<path id="XMLID_789_" class="st278" d="M224.5,165.7c-0.5-1-1.4-1.2-2.3-1.3c-0.5-0.8-0.9-1.6-1.4-2.5c-0.1-1,0.2-1.8,1.2-2.3
		c0.8,0.5,1.7,1,2.5,1.5c1.7,0.9,2.8,2.2,2.3,4.3C226.1,166.2,225.3,166.3,224.5,165.7z"/>
	<path id="XMLID_788_" class="st279" d="M229.3,161.8c2.5-0.6,3,2.2,4.9,2.7c1.6,1.8,0.1,2.6-1.1,3.5
		C231,166.4,230.4,163.9,229.3,161.8L229.3,161.8z"/>
	<path id="XMLID_787_" class="st280" d="M224.5,165.7c0.8-0.1,1.5-0.2,2.3-0.3c0.6,2.3,1.1,4.5-2.7,3.7
		C224.2,168,224.4,166.8,224.5,165.7z"/>
	<path id="XMLID_786_" class="st277" d="M225.6,160.5c0.2-1,0.3-2.1,1.6-2.3c1.7-0.2,2,1.1,2.2,2.3c-0.1,0.4-0.1,0.8-0.1,1.2
		c0,0,0,0,0,0C228.1,161.3,226.8,160.9,225.6,160.5z"/>
	<path id="XMLID_785_" class="st281" d="M238.1,177c-1.4,1.3-2.7,1.2-3.8-0.4C235.9,173.6,236.7,178.2,238.1,177z"/>
	<path id="XMLID_784_" class="st282" d="M233.1,168c0.4-1.2,0.7-2.3,1.1-3.5c1.4,0.6,1.6,1.7,1,3C234.8,168.3,234.2,169.3,233.1,168
		z"/>
	<path id="XMLID_783_" class="st257" d="M263,146.8c0-0.8,0-1.7,0-2.5c1.9,2.1,1.9,4.1,0,6.2C263,149.3,263,148,263,146.8z"/>
	<path id="XMLID_782_" class="st283" d="M255.6,175.4c1.2-3.1-3.1-5.9-0.5-9.4c0.8-1-1.4-1.6-2.6-1.7c-2.4-0.3-4.6-0.6-4.6-3.7
		c1.9-1.6,4.6,0.4,6.4-1.5c1.3-0.8,2.6-1.5,3.9-2.3c3.4,3.6,7.5,6.6,10.2,10.9C266.7,174.6,262.2,176.7,255.6,175.4z"/>
	<path id="XMLID_781_" class="st284" d="M268.4,167.7c-4-3.1-9.1-5.1-10.2-10.9c0.4-0.8,0.8-1.6,1.2-2.4c2.3,4.8,7.6,2.8,11.2,4.8
		c1.1,2.9,1.3,5.8,0,8.7C269.8,167.8,269.1,167.8,268.4,167.7z"/>
	<path id="XMLID_780_" class="st285" d="M254.2,159.1c-1.7,2.5-4.2,1.1-6.4,1.5c-0.8,0-1.5-0.1-2.3-0.1c-0.1-0.4,0-0.8,0-1.2
		C248.5,159.2,251.4,159.2,254.2,159.1z"/>
	<path id="XMLID_779_" class="st243" d="M222,159.6c0.1,1-0.1,1.9-1.2,2.3c-1.8-0.2-3.2-0.9-3.9-2.6c0.4,0,0.9,0,1.3,0
		c1.9,1.6,1.9-2.4,3.7-1.2C221.9,158.6,221.9,159.1,222,159.6z"/>
	<path id="XMLID_778_" class="st286" d="M221.8,158c-1.1,0.7-1.9,2.7-3.7,1.2C219.1,157.9,219.8,155.8,221.8,158z"/>
	<path id="XMLID_777_" class="st287" d="M244.2,178.1c0.4-0.1,0.9-0.2,1.3-0.4c2.1-1.4,4.1-1.6,6,0.5c2.3,0.9,3.6,3.7,6.6,3.6
		c-1,4.5-5.5,6.3-7.5,10.1c-0.6,1.1-1.3-0.9-2.1-1.3c-1.5-3.8-2.9-7.6-4.4-11.4C244.3,178.9,244.3,178.5,244.2,178.1z"/>
	<path id="XMLID_776_" class="st228" d="M236.8,134.2c0.4-0.4,0.8-0.8,1.3-1.2c2.9,0,5.8,0,8.7,0c0,0.4,0,0.8-0.1,1.2
		C243.4,133.8,240.1,136,236.8,134.2z"/>
	<path id="XMLID_775_" class="st288" d="M251.5,178.3c-2-0.2-4-0.3-6-0.5c0-1.5,0-3,0-4.4c3.1,0,5.3,3.1,8.7,2.3
		C253.3,176.5,252.4,177.4,251.5,178.3z"/>
	<text id="XMLID_1_" transform="matrix(1 0 0 1 78.1179 378.4881)" class="st0 st289 st290">SMAM</text>
</g>
</svg>
