<?xml version="1.0" encoding="utf-8"?>
<!-- Generator: Adobe Illustrator 19.0.0, SVG Export Plug-In . SVG Version: 6.00 Build 0)  -->
<svg version="1.1" id="Capa_1" xmlns="http://www.w3.org/2000/svg" xmlns:xlink="http://www.w3.org/1999/xlink" x="0px" y="0px"
	 viewBox="0 0 1024 768" style="enable-background:new 0 0 1024 768;" xml:space="preserve">
<style type="text/css">
	.st0{font-family:'MyriadPro-Regular';}
	.st1{font-size:46px;}
	.st2{letter-spacing:11;}
	.st3{font-family:'Airstrike';}
	.st4{font-size:136.6054px;}
</style>
<text id="XMLID_1_" transform="matrix(1 0 0 1 291.7539 635.437)" class="st0 st1 st2">GASTRONOMIA</text>
<text id="XMLID_2_" transform="matrix(1.0016 0 0 1 286.5815 598.3526)" class="st3 st4">SMAM</text>
<path id="XMLID_24_" d="M621.6,411c-1.5,4-1.8,8-3.7,11.6c-1.1,2.1-1.5,4.6-2.1,6.9c-1.6,6.8-4.1,13.4-6.2,20.1
	c-0.2,0.5-0.4,1.1-0.5,1.6c-1.3,5.4-3.5,10.4-4.8,15.8c-1,4.1-3.5,7.9-5.2,11.9c-1.3,2.9-2.3,5.9-4,8.7c-0.8,1.3-1.4,2.2-3.2,1.1
	c-1.7-1-0.8-1.9-0.2-2.9c2.8-5.6,4.3-11.7,5.1-17.9c0.9-7.4,1.2-14.7,0.3-22.1c-0.7-5.9-1.8-11.5-4-16.9c-2-5-4.6-9.6-7.7-14
	c-1.5-2-2.8-4.1-4.2-6.2c-0.5-0.7-1.1-1.6-0.5-2.5c0.5-0.8,1.5-0.7,2.4-0.7c3.8,0.1,7.2,1.6,10.4,3.3c3,1.6,6,3.3,9.3,4.5
	c2.1,0.8,2.7-0.1,3.1-1.5c0.9-3.2,2.5-6.2,3.7-9.3c1.7-4.3,3.6-8.5,5.3-12.8c2.7-6.8,5-13.6,7.9-20.3c2-4.8,4.6-9.5,7-14.2
	c2.3-4.6,2.2-4.5-2.4-6.5c-10.3-4.5-20.4-9.5-29.2-16.7c-4.5-3.6-8.6-7.6-13-11.4c-7.5-6.5-14-14-21-21.1
	c-5.2-5.4-9.9-11.3-14.7-17.1c-6.6-7.9-13-16-19.2-24.2c-3.9-5.1-8.3-9.9-12.3-15c-2.8-3.7-6-7.1-8.8-10.8c-2.5-3.2-5.7-5.6-8.6-8.3
	c-4.2-3.8-8.7-7.2-13.1-10.9c-0.6-0.5-1.9-0.9-1-2c0.6-0.8,1.5-1.4,2.7-0.9c2,0.9,4.1,1.5,6,2.5c5.4,3,10.9,6,16.1,9.5
	c3.2,2.2,6.1,4.8,8.9,7.5c9.6,9.2,17,20.2,25.8,30c5.8,6.4,10.9,13.4,16.3,20c3.4,4.1,6.9,8.1,10.5,12.1c4,4.3,7.8,8.9,12.1,13
	c8.4,8.1,16.9,15.9,26.8,22c7.5,4.6,15.2,9.1,23.5,12.2c7.5,2.8,15.1,5.4,23.1,6.9c5.3,1,10.7,1.9,16.1,2.4c3.1,0.3,6.3,0.7,9.4,0.8
	c0.9,0,1.7,0.4,2.4,0.9c2.8,2,5.6,3.9,8.7,6c-1,0.7-1.8,1.3-2.9,1.5c-7.8,1.7-15.7,2.3-23.6,1.9c-5.9-0.3-11.7-1-17.5-2.6
	c-3.1-0.8-6.2-1.5-9.1-2.9c-1.2-0.6-1.8,0.2-2.2,1.2c-1.4,3.7-2.9,7.5-4.3,11.2c-0.9,2.5-1.8,5.1-2.8,7.6c-1.8,4.9-3,9.9-4.5,14.9
	c-0.8,2.4-1.5,4.7-2.4,7c-0.9,2.5-0.3,4.7,1.2,6.7c4.4,6.1,9.8,11.1,16.6,14.1c5.7,2.5,11.7,3.6,18.1,3c9.3-0.8,17.9-3.6,26-7.6
	c5.7-2.9,11.2-6.4,16.4-10.4c5.4-4.1,10-8.9,14.5-13.8c5.8-6.3,10.3-13.4,14-21.1c4.4-9.1,6.1-18.6,5.6-28.6
	c-0.4-7.4-2.9-14.2-6.8-20.3c-2-3.1-2.4-7-5.1-9.6c-2.5-2.5-4.6-5.3-6.4-8.3c-2.9-4.6-5.2-9.6-7.2-14.6c-3.7-9.4-6-19.3-9.7-28.8
	c-2.2-5.6-3.7-11.4-5.8-17c-2.7-7.4-6-14.4-10.6-20.9c-3.6-5.1-8-9.3-12.8-13.1c-3.9-3.2-8.7-4.7-13.3-6.6
	c-7.4-3.2-14.9-5.9-22.4-8.6c-6-2.2-12-4.8-18.3-6.3c-1.5-0.4-2.8-1-4.3-1.6c-0.1,0-0.1-0.1-0.2-0.1c-2.4-1.2-3.1-2.9-2-5.4
	c1-2.3,2.8-0.4,3.8-0.1c6.5,1.7,13,3.1,19.5,4.5c10.3,2.2,20.7,4.2,30.4,8.4c5.2,2.3,10.1,5.1,14.8,8.6
	c13.6,10.2,22.6,23.9,29.3,39.1c4.3,9.9,7.1,20.4,10,30.8c2.1,7.3,4.4,14.6,8.6,21c3.9,5.8,7.2,11.9,10.8,17.8
	c3.3,5.5,6.1,11.4,8.1,17.6c1.6,4.8,3.4,9.5,3.9,14.6c1.1,10,0.5,19.7-3.8,28.9c-3.3,7-7.1,13.7-12,19.8c-4,5-8,10-12.4,14.6
	c-6,6-12.2,11.9-19.4,16.6c-5.1,3.4-10.4,6.2-15.9,8.7c-3.9,1.8-8.1,3.1-12.4,4.2c-8.3,2.1-16.7,1.5-25,0.6c-3.8-0.4-7.6-2-11-3.9
	c-4.7-2.6-9.5-5-13-9.3C625.5,416.9,623.2,414.3,621.6,411z"/>
<path id="XMLID_23_" d="M391.1,310.2c-3.4,2.3-6.9,3.7-10.3,5.1c-1.1,0.4-2.2,0.5-3.3,0.7c-7.5,1.7-14.7,0.5-21.9-2
	c-6.2-2.1-11.5-5.6-16.8-9c-3.5-2.3-6.7-5.4-9.6-8.6c-2.4-2.5-4.7-5-6.7-7.8c-6.5-9.1-10-19.4-12.2-30.2c-1.2-6-1.7-12-1.4-18.1
	c0.6-12.9,4.1-24.6,12.7-34.7c5.8-6.8,12.9-11.2,21.2-14.1c2-0.7,3.9-1.2,6-1.5c2.1-0.3,3.7-2,5.2-3.4c4.9-4.4,9.8-8.7,14.3-13.5
	c10-10.5,19.3-21.5,28.3-32.9c5.5-7,10.6-14.3,16-21.3c3.6-4.6,7.9-8.5,12.3-12.2c5.1-4.2,10.7-7.6,16.8-10.2
	c5.7-2.4,11.6-4,17.8-4.4c3.6-0.2,7-1.6,10.6-0.9c5.8,1.1,11.6,1.7,17.4,3c7.1,1.7,13.9,4.2,20.5,7.2c8.1,3.7,15.7,8.3,22.9,13.4
	c9.9,7.1,19.1,15,27.8,23.4c6.9,6.7,13.8,13.4,20.8,19.8c8.8,8.1,17.6,16.4,27.6,23.1c6.5,4.3,13.2,8.2,20.5,11.3
	c5.9,2.5,12,4.3,18,6.2c2,0.6,1.7,2.1,1.5,3.5c-0.2,1.8-1.4,0.8-2.4,0.7c-4.4-0.4-8.6-1.4-12.9-2.5c-6.4-1.6-12.6-3.8-18.7-6.6
	c-10.3-4.6-18.8-11.7-27.5-18.7c-6.5-5.3-12.6-11.1-19.2-16.2c-5.7-4.4-10.8-9.7-16.5-14.2c-5.3-4.3-10.2-9-15.8-12.8
	c-3.6-2.5-6.9-5.5-10.7-7.6c-6-3.4-11.8-6.8-18.4-8.8c-3.1-0.9-6-2.5-9.3-3c-3.4-0.6-6.7-1.7-10.1-2.1c-7-0.9-14-0.7-21.1-0.6
	c-3.8,0-7.6,1-11.2,2.4c-4,1.5-8,2.8-11.7,4.8c-7.9,4.3-15.4,9-21.9,15.3c-5.8,5.7-11.8,11.1-17.4,17.1c-4,4.3-7.5,8.8-11.7,12.9
	c-4,3.9-7.3,8.5-11.3,12.3c-8,7.6-16.9,13.8-27.1,18.1c-8,3.4-14.9,8.4-20.7,14.9c-3.3,3.6-5.5,8-7.5,12.5c-3.7,8.3-5.3,17-4.8,26.2
	c0.4,7.1,2.2,13.8,4.8,20.5c3.1,8.1,8.1,14.8,14.5,20.6c6.6,5.9,13.6,11,22,13.8c7.2,2.4,14.6,2.6,21-2.5c3.8-3.1,6.6-7.1,8.6-11.6
	c3.7-8.5,5.6-17.5,7.6-26.5c0.8-3.7,1.7-7.3,2.4-11c0.1-0.5,0.3-1,0.8-1.1c0.6-0.1,0.7,0.5,0.9,1c2.1,5.8,3.5,11.8,3.8,18
	c0.5,11.2-0.8,22.2-3.1,33.2c-1.5,7.5-3.6,14.9-5.3,22.4c-2.2,9.4-4.9,18.7-7.4,28c-1.8,6.9-4.3,13.5-6.7,20.3
	c-1.9,5.4-6.4,8.2-11.2,10.6c-1.3,0.7-1.3-0.6-1.1-1.5c2-7.3,3.8-14.7,6.3-21.9c2.1-6.2,4-12.5,5.6-18.8c1.3-5.1,3-10.1,4.4-15.2
	C388.4,319.7,390.2,315.3,391.1,310.2z"/>
<path id="XMLID_22_" d="M457.6,477.7c-3-0.2-5-1.4-7.2-2.4c-13.3-5.8-25.5-13.7-38-20.9c-6.6-3.8-12.8-8.4-18.9-13.1
	c-6.1-4.7-11.8-9.8-17.4-15.1c-4.8-4.6-8.1-10.2-8.8-16.9c-0.7-6.3,1.5-12,5.7-16.8c3.3-3.8,7.3-6.8,11.7-9c4.3-2.1,9-3.5,13.8-4.4
	c2.2-0.4,4.4-1,6.6-1.8c1.5-0.5,3-0.5,4.4-0.8c4.2-0.7,8.5-1.1,12.7-1.8c10.8-1.7,21.5-1,32.3-1.3c5.2-0.1,10.3,0.7,15.4,1.2
	c5.5,0.6,10.9,1.5,16.4,2.5c5.8,1,11.6,2.5,17.3,4.2c4.7,1.4,9.5,2.7,14.1,4.4c6.7,2.6,13.3,5.2,19.6,8.8c4.9,2.8,10,5.4,14.3,8.9
	c3.9,3.1,8.2,5.7,11.6,9.6c2.8,3.2,6,6.1,8.7,9.6c4.2,5.4,7.4,11.4,10.1,17.6c4.8,10.7,6.4,22.1,5.2,33.6c-1,8.9-2.6,18-7.5,25.8
	c-4.3,6.8-10.3,11-18.5,11.5c-4.8,0.3-9.7,0.5-14.4-0.5c-6.3-1.4-12.5-2.9-18.5-5.5c-2.9-1.2-5.5-2.9-8.2-4.4
	c-0.6-0.3-1.4-0.6-1-1.4c0.3-0.7,1.1-0.4,1.7-0.3c5.8,1.1,11.2,3.2,17.2,3.8c5.2,0.5,10.4,1.2,15.5,0.8c7.8-0.5,14.9-3.1,19.4-10.1
	c2-3,2.6-6.6,3.1-10c1.1-8,0.6-15.9-0.6-23.8c-0.9-5.6-1.9-11.1-4.6-16.1c-4.4-8.2-9.9-15.5-17-21.8c-7.9-7.1-16.7-12.6-25.9-17.5
	c-8.4-4.4-17.4-7.4-26.5-10.1c-5.9-1.7-11.9-2.9-17.8-4.2c-8-1.7-16.1-2.2-24.2-3.5c-5.8-0.9-11.5-0.5-17.2-0.8
	c-2-0.1-3.9-1.2-6.1-0.9c-5.2,0.5-10.4,1.2-15.7,1.5c-3.8,0.2-7.5,1-11.2,1.5c-5.6,0.8-11,2.3-16.2,4.6c-3.1,1.4-6.1,2.8-8.7,5
	c-7.5,6.2-8.6,14.1-3.5,22.1c3.7,5.8,8.9,10.2,13.9,14.8c7.9,7.3,16.5,13.9,25.6,19.6c10.8,6.7,21.1,14.2,32.2,20.3
	C454.1,475.1,456.1,475.5,457.6,477.7z"/>
<path id="XMLID_21_" d="M400.4,235.7c-8.1,1.3-16.4,1.5-24.1,5.2c-3.5,1.7-7.3,2.8-10.7,4.8c-2,1.2-3.9,2.5-5.7,4
	c-3.5,2.9-7.3,5.3-11.8,6.6c-1.7,0.5-1.6-0.1-1.3-1.3c1.4-6.1,4.1-11.2,8.5-15.8c5.4-5.7,12-9.1,19.1-11.3
	c8.7-2.8,17.8-3.6,27.1-2.6c14,1.5,26.1,7.3,37.2,15.4c4.4,3.2,8.5,7.1,12.3,11.1c0.5,0.5,1.6,1.1,0.9,1.9c-0.6,0.7-1.7,0.5-2.5,0.3
	c-3.5-0.9-6.8-2.3-9.9-4.1c-7.3-4.3-14.5-8.7-22.7-11.2c-3.3-1-6.5-2.3-10-1.9C404.5,236.9,402.6,235.3,400.4,235.7z"/>
</svg>
