<?xml version="1.0" encoding="utf-8"?>
<!-- Generator: Adobe Illustrator 19.0.0, SVG Export Plug-In . SVG Version: 6.00 Build 0)  -->
<svg version="1.1" id="Capa_1" xmlns="http://www.w3.org/2000/svg" xmlns:xlink="http://www.w3.org/1999/xlink" x="0px" y="0px"
	 viewBox="0 0 1024 768" style="enable-background:new 0 0 1024 768;" xml:space="preserve">
<style type="text/css">
	.st0{fill:#FFFFFF;}
	.st1{font-family:'MyriadPro-Regular';}
	.st2{font-size:46px;}
	.st3{letter-spacing:11;}
	.st4{font-family:'Airstrike';}
	.st5{font-size:136.6054px;}
</style>
<text id="XMLID_1_" transform="matrix(1 0 0 1 282.2711 641.4714)" class="st0 st1 st2 st3">solo mi música</text>
<path id="XMLID_23_" class="st0" d="M724.4,291.2c-1.1,9.2-1.7,18.4-3.2,27.5c-10.2,60.9-36.7,114.1-76.4,161.1
	c-3.9,4.6-7.8,3.5-10.7,0.4c-7.2-7.6-13.1-7.2-21.8-1.2c-9.3,6.4-20.5,3.8-30.4-1.1c-8.5-4.2-16.3-9.7-23.9-15.4
	c-2.5-1.9-3.2-3.4,0-5.4c16.7-10.9,27.8-26.8,38.4-43.1c18.8-28.9,34.2-59.7,46.1-92.1c4.4-12,7.9-24.4,8.6-37.2
	c0.4-5.8,2.4-5.1,5.9-2.5c9.6,7.1,19.2,14,27.1,25.3c2.7-21.1,3.5-40.7-1.9-60c-12-42.4-39.2-72.9-76.5-94.8
	c-36.9-21.6-77.2-30-119.5-26.4c-51.4,4.4-96.7,23.5-132.4,61.7c-27.4,29.3-40,64.4-35.7,104.8c0.5,4.4-0.3,9.1,2.1,14.2
	c7.8-10.7,17.6-18.1,27.6-25.3c2.6-1.8,4.8-2.9,5.1,1.8c1.9,25.6,11.9,48.7,22.5,71.5c13.4,28.6,28.3,56.4,48.3,81
	c6.4,7.9,13.1,15.5,22,20.8c3.3,1.9,3.4,3.7,0.3,5.8c-4,2.8-7.9,5.6-12,8.2c-2.7,1.8-3.4,3.8-1.9,6.7c0.9,1.8,1.6,3.6,2.2,5.5
	c4.9,15.3,0.2,26.2-14.3,33.2c-1.8,0.9-3.6,1.7-5.4,2.6c-9.7,0-19.4,0-29.1,0c-1.7-0.4-3.4-0.9-5.1-1.1c-30.1-3.7-60.3-5.4-90.7-5.1
	c-5.8,0.1-10.5-1-12.7-7c0-0.9,0-1.8,0-2.6c2.4-4,5.3-6.9,10.4-6.9c30.4-0.2,60.8-0.5,90.9,4.9c8.7,1.6,17.4,2.4,26.3,1.9
	c3.1-0.2,6.1-0.8,8.9-2.4c6.1-3.4,5.5-8.8,4.4-14.5c-1.2-6.1-5.4-4.2-9.3-3.9c-7.5,0.7-14.6-0.3-20.8-4.9c-2.9-2.1-4.9-2.3-7.9,0.4
	c-10.8,9.9-15.2,9.3-24.7-2c-27.9-33.6-48.9-71.1-62.3-112.7c-11.9-36.9-18.2-74.7-10.1-113.3c17.4-82.6,67.9-136.8,145.9-166.6
	c15.5-5.9,31.9-8.5,48.1-11.6c16.3,0,32.6,0,49,0c1.7,0.4,3.4,0.9,5.1,1.1c22.1,3.1,43.6,8.9,63.8,18.6
	C659,122.1,701.4,171.1,719,240.8c3.1,12.2,3.5,24.8,5.4,37.2C724.4,282.3,724.4,286.8,724.4,291.2z"/>
<path id="XMLID_21_" class="st0" d="M645.3,286.1c-1.4,16.4-7.7,33.1-14.6,49.6c-13.8,33-30.2,64.7-52.2,93.2
	c-6.5,8.4-13.5,16.3-22.3,22.4c-3.5,2.4-7.4,4.5-11.7,2c-4-2.3-4.4-6.3-4.5-10.4c-0.4-18.3,5.8-35.1,12.3-51.8
	c13.5-34.5,30.6-67,54.1-95.8c6.4-7.9,13.3-15.3,22.1-20.7c3.8-2.3,7.6-5.1,12.2-2.5C645.4,274.8,645.3,279.7,645.3,286.1z"/>
<path id="XMLID_20_" class="st0" d="M464,439.5c0,1.5,0.1,3.1,0,4.6c-0.7,9.6-6.7,12.8-14.9,7.9c-8.5-5.1-15.2-12.3-21-19.9
	c-30.7-40.4-53.6-84.8-67.3-133.8c-1.5-5.3-2.2-10.8-1.9-16.4c0.5-10,6.5-13.4,15.1-8.3c13.6,8.1,23.4,20.1,32.3,32.7
	c24.9,34.9,44,72.7,55.1,114.3c1.1,4,1.7,8.2,2.4,12.3c0.3,2.2,0.3,4.4,0.5,6.6C464.1,439.5,464.1,439.5,464,439.5z"/>
<text id="XMLID_2_" transform="matrix(1.0016 0 0 1 277.0987 604.3871)" class="st0 st4 st5">SMAM</text>
</svg>
